<svg width="20" height="20" viewBox="0 0 20 20" fill="none" xmlns="http://www.w3.org/2000/svg">
<path d="M7 8L10.2581 10.4436C10.6766 10.7574 11.2662 10.6957 11.6107 10.3021L18 3" stroke="white" stroke-width="2" stroke-linecap="round"/>
<path d="M19 10C19 11.8805 18.411 13.7137 17.3156 15.2423C16.2203 16.7709 14.6736 17.9179 12.893 18.5224C11.1123 19.1268 9.18696 19.1583 7.38744 18.6125C5.58792 18.0666 4.00459 16.9707 2.85982 15.4789C1.71505 13.987 1.06635 12.174 1.00482 10.2945C0.943291 8.41499 1.47203 6.56344 2.51677 4.99987C3.56152 3.4363 5.06979 2.23925 6.82975 1.57685C8.58971 0.914444 10.513 0.819961 12.3294 1.30667" stroke="white" stroke-width="2" stroke-linecap="round"/>
</svg>
