<svg width="98" height="98" viewBox="0 0 98 98" fill="none" xmlns="http://www.w3.org/2000/svg">
<path fill-rule="evenodd" clip-rule="evenodd" d="M46.4684 97.5808C46.3323 97.2693 46.0046 97.3033 45.7584 97.2067C43.1986 96.1866 41.6766 93.5221 42.1717 90.908C42.6926 88.1551 44.964 86.225 47.7645 86.206C50.92 86.1842 54.0769 86.1897 57.2324 86.2046C59.5963 86.2155 61.3305 87.309 62.3941 89.4036C62.6321 89.8729 62.8851 90.0089 63.3897 90.0089C71.375 89.9926 79.3604 89.9994 87.3457 89.9926C88.8935 89.9926 89.6348 89.2731 89.6375 87.7538C89.647 83.6816 89.6266 79.6121 89.6552 75.5412C89.6606 74.9156 89.4892 74.6721 88.869 74.7687C88.684 74.7972 88.4909 74.7727 88.3018 74.7727C87.5769 74.7755 86.7744 74.5809 86.1447 74.8299C85.4129 75.1168 85.7625 76.0948 85.4836 76.7327C84.5928 78.7674 83.1429 80.0908 80.9122 80.3765C79.1264 80.605 77.3174 80.6009 75.5316 80.3806C72.8616 80.0501 70.8595 77.9473 70.6746 75.261C70.5698 73.7527 70.6188 72.2334 70.6174 70.7182C70.6133 65.3212 70.6134 59.9242 70.6161 54.5272C70.6188 50.4305 72.9038 48.1428 77.0046 48.1591C78.6667 48.1659 80.3383 48.0013 81.9854 48.4094C83.2625 29.2356 69.9904 15.1433 54.4156 12.5101C36.2089 9.43623 19.0985 21.521 15.943 39.7086C15.4765 42.3976 15.4384 45.1029 15.4302 47.8177C15.4275 48.3727 15.603 48.4135 16.0831 48.3278C17.9913 47.9782 19.9322 48.0558 21.8364 48.2176C24.5798 48.4502 26.6268 50.6699 26.8172 53.4296C26.9124 54.8129 26.8662 56.2056 26.8675 57.5929C26.8703 63.1191 26.873 68.6413 26.8675 74.1648C26.8635 78.1731 24.5349 80.4921 20.5049 80.4839C19.2114 80.4812 17.9165 80.5791 16.6271 80.3996C14.0796 80.0419 12.1714 78.2275 11.781 75.6772C11.6667 74.9278 11.407 74.7115 10.6562 74.751C9.30283 74.8231 7.94271 74.7755 6.5853 74.7714C3.34412 74.7632 1.60724 73.55 0.437527 70.491C0.408964 70.419 0.316472 70.3673 0.253906 70.3074C0.253906 66.2665 0.253906 62.2269 0.253906 58.1846C0.577617 58.0622 0.539527 57.7317 0.642897 57.4869C1.06862 56.479 1.60995 55.429 2.60013 55.0223C4.10171 54.4048 4.10443 53.3208 4.06771 52.0273C4.0065 49.8824 4.05683 47.7375 4.05003 45.5912C4.04322 43.4109 4.17651 41.2374 4.48934 39.083C5.90116 29.3594 10.0223 20.9538 16.9209 13.9546C23.5502 7.23012 31.5369 3.03547 40.832 1.31899C42.2655 1.05512 43.7399 1.04971 45.1409 0.607666C47.4776 0.607666 49.8129 0.607666 52.1483 0.607666C52.2285 0.86473 52.4502 0.765425 52.6188 0.787187C53.93 0.961284 55.2521 1.07688 56.551 1.31218C67.0797 3.2286 75.8471 8.26111 82.7851 16.396C89.0716 23.7652 92.5481 32.3204 93.2745 41.9896C93.5614 45.802 93.371 49.6199 93.42 53.4351C93.4268 53.9029 93.4798 54.194 93.9899 54.4483C96.1239 55.5188 97.2066 57.3046 97.2202 59.6957C97.2379 62.8186 97.2555 65.9428 97.2134 69.0657C97.1835 71.333 96.1362 73.0603 94.1137 74.0981C93.5288 74.3973 93.4132 74.7442 93.4159 75.3331C93.4377 79.4339 93.4322 83.5347 93.4268 87.6355C93.4227 91.3922 91.0343 93.7805 87.2817 93.7846C82.7389 93.7914 78.1947 93.786 73.6519 93.786C70.2448 93.786 66.8376 93.7805 63.4305 93.7955C63.1272 93.7969 62.7436 93.6037 62.5423 94.0825C61.7304 96.0234 60.1608 97.0435 58.209 97.5808C54.2972 97.5808 50.3828 97.5808 46.4684 97.5808ZM11.6531 47.5729C11.6531 41.844 11.9361 39.1061 13.152 34.9495C18.1192 17.9588 34.4856 6.55142 52.5944 8.42704C61.1265 9.30976 68.5201 12.7998 74.6393 18.8238C81.3026 25.3851 85.0076 33.3623 85.6999 42.7118C85.957 46.1788 85.791 49.6525 85.8169 53.1208C85.8209 53.6717 85.9094 53.9138 86.5296 53.8689C87.347 53.8077 88.1713 53.8349 88.9901 53.8621C89.443 53.8771 89.6674 53.8037 89.6538 53.2596C89.5695 49.5696 89.7708 45.8782 89.4933 42.1895C88.9384 34.7931 86.5269 28.0537 82.2969 21.9753C71.424 6.35012 51.1989 0.0840006 33.5281 7.41781C19.5487 13.2188 11.2206 23.806 8.40787 38.679C7.49386 43.5197 7.92639 48.4325 7.83254 53.3153C7.82302 53.8281 8.05288 53.8689 8.45548 53.8594C9.27564 53.839 10.0999 53.8037 10.9146 53.8689C11.5865 53.9247 11.6749 53.6377 11.6654 53.0651C11.6341 51.233 11.6531 49.4009 11.6531 47.5729ZM23.0809 64.4344C23.0809 61.0926 23.085 57.7494 23.0782 54.4048C23.0755 52.5958 22.424 51.943 20.6449 51.9403C19.6357 51.9376 18.6265 51.9294 17.6173 51.9416C16.2082 51.9579 15.4479 52.6897 15.4452 54.1083C15.4329 60.9226 15.4329 67.7341 15.4465 74.5456C15.4493 75.9003 16.2001 76.6456 17.5561 76.6905C18.5626 76.7245 19.5732 76.7028 20.5824 76.6987C22.4226 76.6892 23.0755 76.0363 23.0782 74.1797C23.085 70.9317 23.0809 67.6838 23.0809 64.4344ZM74.404 64.3446C74.404 67.7178 74.3904 71.0936 74.4095 74.4681C74.4163 75.9588 75.1317 76.6647 76.6183 76.696C77.7214 76.7191 78.8272 76.7259 79.9289 76.6919C81.2482 76.6511 82.0275 75.9234 82.0316 74.6367C82.052 67.7626 82.052 60.8872 82.0343 54.0104C82.0303 52.6788 81.2251 51.9579 79.8622 51.9416C78.8843 51.9307 77.9064 51.9389 76.9284 51.9389C75.0215 51.9416 74.4054 52.5645 74.404 54.5041C74.4013 57.7834 74.404 61.0627 74.404 64.3446ZM11.6531 64.3433C11.6531 62.3561 11.6259 60.3703 11.6695 58.3873C11.6831 57.7467 11.4763 57.6025 10.8751 57.6188C9.33276 57.6582 7.78766 57.6188 6.24391 57.6379C4.78449 57.6528 4.05275 58.4036 4.04731 59.8739C4.03915 62.8349 4.03915 65.7959 4.04731 68.7596C4.05139 70.2367 4.75185 70.9522 6.25071 70.9766C7.8271 71.0038 9.40212 70.9589 10.9772 70.9957C11.5239 71.0079 11.6708 70.8311 11.6627 70.2993C11.6368 68.3121 11.6531 66.3277 11.6531 64.3433ZM85.8305 64.2236C85.8305 66.2393 85.8345 68.2564 85.8277 70.2735C85.8277 70.672 85.7951 71.0052 86.3868 70.9916C88.0869 70.9562 89.7912 71.0147 91.49 70.959C92.7426 70.9182 93.4268 70.151 93.4336 68.8752C93.4486 65.8503 93.4458 62.8254 93.4349 59.8004C93.4295 58.4009 92.6787 57.6542 91.2628 57.6365C89.6878 57.6161 88.1114 57.6623 86.5364 57.6147C85.9284 57.597 85.8087 57.8038 85.8169 58.3628C85.8509 60.3159 85.8305 62.2691 85.8305 64.2236ZM52.6705 89.9898C51.1227 89.9898 49.5762 89.9817 48.0298 89.9926C46.72 90.0007 45.9012 90.7339 45.8985 91.875C45.8944 93.0107 46.7254 93.7833 48.0148 93.7874C51.0452 93.7996 54.0756 93.801 57.1059 93.7874C58.3912 93.7819 59.2032 92.9998 59.1828 91.8437C59.1638 90.7257 58.3749 90.0035 57.1222 89.9926C55.6383 89.9817 54.1531 89.9898 52.6705 89.9898Z" fill="#040404"/>
<path fill-rule="evenodd" clip-rule="evenodd" d="M38.207 42.471C40.5192 42.471 42.6533 42.4615 44.7846 42.4751C45.8101 42.4819 46.5201 43.0151 46.7677 43.9073C46.9853 44.6907 46.6058 45.5993 45.8768 46.0141C45.5408 46.2059 45.1736 46.2671 44.786 46.2658C41.4741 46.259 38.1621 46.2549 34.8516 46.2671C33.9049 46.2685 33.0902 46.0277 32.6414 45.1219C32.1735 44.1793 32.4795 43.3306 33.1093 42.5934C35.582 39.6868 38.0764 36.7993 40.5546 33.8981C41.3122 33.0127 42.0317 32.0959 42.5227 31.0241C43.06 29.8517 42.8682 29.0111 41.8821 28.1869C39.7168 26.3807 35.8009 27.3123 35.2664 29.781C35.0393 30.8269 33.9036 31.2513 32.912 30.9167C31.96 30.593 31.4485 29.6205 31.7314 28.5446C32.0592 27.2919 32.7529 26.2515 33.7254 25.3987C36.8401 22.6621 41.9664 22.8253 44.8268 25.755C46.6765 27.6497 47.124 30.0422 46.0577 32.4469C45.4388 33.841 44.5466 35.061 43.5632 36.2158C42.6846 37.2495 41.8127 38.2872 40.9314 39.3169C40.0704 40.3193 39.2026 41.3176 38.207 42.471Z" fill="#040404"/>
<path fill-rule="evenodd" clip-rule="evenodd" d="M63.3596 31.4786C63.3596 33.0251 63.3786 34.5716 63.3487 36.1181C63.3405 36.6227 63.4493 36.7995 64.0029 36.8444C65.1767 36.9409 65.8323 37.689 65.8241 38.7417C65.8159 39.789 65.1332 40.5262 63.9635 40.5806C63.3745 40.6092 63.3147 40.8472 63.3256 41.3273C63.35 42.3053 63.346 43.2832 63.3147 44.2612C63.2766 45.4526 62.4333 46.2809 61.3507 46.2415C60.3115 46.202 59.5539 45.3696 59.5376 44.2149C59.5226 43.2383 59.5118 42.259 59.5566 41.2825C59.5811 40.7439 59.4111 40.5888 58.8725 40.5956C56.6324 40.6242 54.3922 40.6133 52.1521 40.6065C50.0793 40.5969 49.2754 39.2028 50.3091 37.3911C52.5071 33.5365 54.6874 29.6683 57.0635 25.9171C57.4675 25.2792 57.8782 24.6413 58.508 24.1856C59.4424 23.511 60.457 23.2675 61.5302 23.7721C62.6849 24.3189 63.2929 25.3009 63.3323 26.5591C63.384 28.198 63.3446 29.8397 63.3446 31.48C63.3487 31.4787 63.3541 31.4786 63.3596 31.4786ZM59.5702 29.3419C59.509 29.3228 59.4465 29.3065 59.3853 29.2888C57.9449 31.7561 56.5059 34.2261 54.9948 36.8158C56.4787 36.8158 57.7409 36.8076 59.0003 36.8212C59.3581 36.8253 59.5825 36.794 59.577 36.3316C59.558 34.0017 59.5702 31.6704 59.5702 29.3419Z" fill="#040404"/>
<path fill-rule="evenodd" clip-rule="evenodd" d="M48.7601 57.6489C50.6861 57.6489 52.612 57.6367 54.5352 57.653C56.3796 57.6693 57.2188 59.0349 56.3755 60.6739C53.2377 66.7727 50.0862 72.8674 46.9321 78.9581C46.2983 80.1808 45.2455 80.5889 44.2227 80.0503C43.1958 79.5076 42.951 78.4467 43.5957 77.1954C46.1568 72.2146 48.7152 67.2324 51.309 62.2679C51.6912 61.5348 51.5756 61.4111 50.7853 61.4247C48.2297 61.4641 45.6726 61.4451 43.1169 61.4383C41.614 61.4356 40.7898 60.7704 40.7789 59.5749C40.7694 58.3562 41.6398 57.653 43.1754 57.6503C45.0361 57.6462 46.8995 57.6489 48.7601 57.6489Z" fill="#050505"/>
<path fill-rule="evenodd" clip-rule="evenodd" d="M48.7263 53.8349C43.4545 53.8349 38.184 53.8376 32.9121 53.8335C31.5126 53.8322 30.7033 53.1249 30.7128 51.9334C30.721 50.7637 31.5465 50.0496 32.9448 50.0483C43.4871 50.0442 54.0308 50.0497 64.5732 50.0415C65.5511 50.0415 66.3386 50.3584 66.6705 51.3159C66.9507 52.1225 66.7603 52.8746 66.0585 53.4405C65.611 53.7995 65.0887 53.8417 64.5405 53.8403C59.27 53.8322 53.9982 53.8349 48.7263 53.8349Z" fill="#020202"/>
</svg>
