<svg width="87" height="98" viewBox="0 0 87 98" fill="none" xmlns="http://www.w3.org/2000/svg">
<path fill-rule="evenodd" clip-rule="evenodd" d="M62.5435 47.9099C59.5178 55.8703 53.4698 56.8957 46.4989 56.2788C44.9251 56.1405 42.902 56.1014 41.7578 56.9364C35.4445 61.557 31.7418 57.4165 28.5208 52.9537C26.3529 49.9492 24.9369 47.42 20.3504 49.0557C17.4957 50.0762 15.1325 47.8041 14.7972 44.6238C13.4528 31.8686 15.209 19.5642 23.5356 9.48629C35.3127 -4.76631 57.9521 -2.29892 66.8403 13.9344C74.568 28.0503 74.2278 42.8905 68.8275 57.5907C65.7465 65.9791 50.6183 71.0409 42.9232 67.0013C41.5186 66.264 40.9343 65.2858 41.1247 63.7917C41.3151 62.2894 42.2445 61.1745 43.6556 61.033C46.6064 60.7351 49.5848 60.7465 52.5502 60.6147C60.7825 60.255 63.5737 56.982 62.5435 47.9099ZM63.1701 26.7792C61.9087 14.1395 53.574 6.44761 42.9134 6.86101C32.2593 7.27604 24.2338 15.4676 24.5024 25.6578C40.5062 5.89911 51.9448 11.9504 63.1701 26.7792Z" fill="#040404"/>
<path fill-rule="evenodd" clip-rule="evenodd" d="M44.2397 97.8682C32.601 97.8698 20.9492 97.5492 9.32676 97.9837C1.83507 98.2637 -0.313319 94.9418 0.506975 88.1825C1.31099 81.5632 3.61075 75.603 7.8408 70.4534C16.6573 59.718 24.8814 58.7056 35.9147 66.9037C45.3041 73.8827 58.5167 74.5337 66.8954 67.1657C71.2606 63.3263 73.5115 64.5177 76.7162 67.7126C82.9351 73.9153 86.2846 81.293 86.7208 90.0933C86.9943 95.5831 84.784 98.0163 79.1527 97.9251C67.5188 97.7331 55.8768 97.8665 44.2397 97.8682Z" fill="#040404"/>
<path fill-rule="evenodd" clip-rule="evenodd" d="M63.1699 26.7793C51.9462 11.9521 40.506 5.89918 24.5022 25.6578C24.2336 15.4676 32.2591 7.27611 42.9132 6.86108C53.5721 6.44768 61.9085 14.1396 63.1699 26.7793Z" fill="#EBEBEB"/>
</svg>
