<svg width="124" height="124" viewBox="0 0 124 124" fill="none" xmlns="http://www.w3.org/2000/svg">
<path fill-rule="evenodd" clip-rule="evenodd" d="M61.1177 123.883C42.257 123.883 23.3963 123.747 4.53735 123.996C0.742927 124.046 -0.0173751 123.271 0.000306244 119.464C0.184192 81.156 0.182424 42.8458 0.000306244 4.53735C-0.0173751 0.746467 0.721713 -0.0173845 4.52851 0.000296843C42.8369 0.184183 81.1471 0.184195 119.457 0.0020775C123.246 -0.0156039 124.012 0.723431 123.993 4.53023C123.809 42.8387 123.81 81.1489 123.993 119.457C124.01 123.248 123.277 124.047 119.464 123.998C100.018 123.749 80.5672 123.883 61.1177 123.883ZM56.3013 114.641C58.294 114.655 60.4865 116.059 62.1538 113.801C67.3592 109.296 74.8985 107.722 78.2934 100.945C78.8185 100.971 79.3383 100.927 79.8511 100.816C86.9625 99.9336 91.5031 94.4506 97.124 90.9532C99.6153 89.4025 100.172 70.9839 97.9851 69.2829C97.0833 68.5827 95.1808 69.1715 93.7345 69.1715C100.727 62.5676 98.9133 53.9691 99.0283 45.8074C99.0619 43.3797 98.2804 41.1766 95.5946 43.0438C90.1805 46.8099 83.2689 48.5834 79.6159 54.7453C77.2997 54.7542 74.9834 54.763 72.6689 54.7736C72.0695 53.2512 76.58 52.5033 73.606 51.0198C67.529 47.9928 62.3571 42.7909 54.9327 42.8281C54.3652 42.6689 53.7976 42.5116 53.23 42.3525C59.2859 36.4946 68.3281 35.6247 74.3486 29.7103C88.3523 29.5158 102.345 29.2965 105.519 11.0387C105.608 10.526 105.408 9.96196 105.326 9.42622C93.2076 8.50502 82.6147 10.1653 78.7301 24.2361C78.1961 26.174 77.678 29.1304 74.3486 28.8952C68.0452 26.0626 63.0078 18.8751 54.7206 22.765C44.4813 27.5744 34.3534 32.6206 24.1778 37.5643C22.4804 37.8048 21.3046 38.7472 20.5602 40.2643C15.4892 48.4808 16.7499 62.0442 23.0745 67.338C22.9613 68.3422 22.8464 69.3483 22.7315 70.3509C21.3594 69.9707 19.3384 68.825 18.7319 69.343C16.2813 71.4277 17.5791 89.8481 20.4187 91.6162C25.6206 94.8572 30.0781 99.3624 36.1552 101.148C36.9137 101.09 37.6722 101.033 38.4307 100.973C42.5558 107.933 50.1941 110.288 56.3013 114.641Z" fill="#FDFDFD"/>
<path fill-rule="evenodd" clip-rule="evenodd" d="M54.9346 42.8314C62.3572 42.7943 67.5308 47.9961 73.6079 51.0232C76.5836 52.5066 72.0714 53.2545 72.6707 54.7769C72.0767 55.4293 71.4826 56.0818 70.8885 56.7343C65.699 57.049 60.8808 58.0497 58.455 63.4673C54.8179 71.0844 57.1748 79.0746 56.9945 86.9057C49.3172 84.9961 43.1659 80.8339 38.5528 74.405C38.7844 68.5047 39.0161 62.6062 39.2477 56.7059C42.1138 57.2947 44.98 57.8818 47.8461 58.4688C47.9823 60.877 49.2624 62.2897 51.6423 62.4895C52.7333 62.5815 53.1028 61.6514 52.8783 60.7249C52.1904 57.8747 49.7805 58.6739 47.8585 58.4546C46.0285 54.5753 43.3639 52.7489 39.0903 54.8883C35.2022 54.8812 36.4293 57.8977 36.3126 59.878C36.0261 64.7457 35.989 69.6275 35.8511 74.5022C35.1421 74.4403 34.4313 74.3785 33.7223 74.3166C30.5273 71.454 27.0864 68.9644 23.0781 67.3413C16.7517 62.0493 15.491 48.4859 20.5656 40.2711C23.2797 40.669 22.1056 45.2944 26.1334 44.9496C25.4527 42.3699 24.8162 39.9688 24.1814 37.5659C34.357 32.6222 44.4849 27.5759 54.7242 22.7666C63.0114 18.8767 68.0489 26.0641 74.3523 28.8967L74.3505 29.7118C68.33 35.628 59.2877 36.4962 53.2319 42.354C53.4122 43.1674 53.5926 43.9807 53.7729 44.7958C54.1601 44.1416 54.5474 43.4874 54.9346 42.8314ZM30.6245 48.9845C30.8349 48.4894 31.3176 47.8865 31.1779 47.5276C31.0418 47.1775 30.2691 47.0714 29.7776 46.8575C29.5654 47.3508 29.0791 47.9537 29.2206 48.3091C29.3603 48.6627 30.1276 48.7706 30.6245 48.9845ZM49.8901 34.797C49.5259 35.3062 49.1935 35.7411 48.9247 36.2132C48.9035 36.2504 49.4268 36.7349 49.5347 36.6836C49.9944 36.4573 50.3923 36.1072 50.8148 35.8013C50.516 35.4777 50.219 35.1541 49.8901 34.797ZM35.0095 50.6077C34.9051 50.369 34.8026 50.132 34.7 49.8951C34.5515 50.2629 34.3376 50.6218 34.2775 51.0037C34.2421 51.2141 34.4613 51.467 34.5657 51.7003C34.7142 51.3361 34.8627 50.9719 35.0095 50.6077Z" fill="#525252"/>
<path fill-rule="evenodd" clip-rule="evenodd" d="M79.618 54.749C83.271 48.587 90.1827 46.8136 95.5967 43.0475C98.2825 41.1786 99.064 43.3816 99.0304 45.8111C98.9155 53.9728 100.728 62.5712 93.7366 69.1752L93.8515 69.0267C92.4512 67.0499 91.5035 68.9171 90.3966 69.4316C86.5545 70.2679 84.3425 75.0525 79.664 73.859C79.6481 67.4884 79.634 61.1196 79.618 54.749Z" fill="#565656"/>
<path fill-rule="evenodd" clip-rule="evenodd" d="M79.6179 54.7488C79.6338 61.1194 79.648 67.4882 79.6639 73.8588C73.9068 79.6583 67.8421 84.9963 59.6274 87.0668C60.0676 79.8192 60.5061 72.5734 60.9464 65.324C63.2238 61.2609 69.6686 62.0229 70.8904 56.7362C71.4845 56.0837 72.0786 55.4313 72.6727 54.7788C74.9872 54.7665 77.3034 54.7576 79.6179 54.7488Z" fill="#525252"/>
<path fill-rule="evenodd" clip-rule="evenodd" d="M93.736 69.1749C95.1824 69.1731 97.0867 68.5844 97.9866 69.2863C100.174 70.9873 99.6151 89.4059 97.1256 90.9566C91.5047 94.4557 86.9641 99.9369 79.8526 100.819C79.4336 88.9444 78.2595 76.7496 92.4453 71.0527C93.3311 70.6672 94.6555 70.5859 93.851 69.0264L93.736 69.1749Z" fill="#585858"/>
<path fill-rule="evenodd" clip-rule="evenodd" d="M36.1625 101.152C30.0836 99.366 25.6262 94.8607 20.4243 91.6197C17.5847 89.8516 16.2869 71.4312 18.7375 69.3466C19.344 68.8285 21.3649 69.9743 22.737 70.3544C26.1955 72.6901 29.654 75.0276 33.1124 77.3615C36.1961 79.264 36.9422 82.1072 36.7265 85.5515C36.4012 90.7446 36.3375 95.9499 36.1625 101.152Z" fill="#525252"/>
<path fill-rule="evenodd" clip-rule="evenodd" d="M74.3505 29.7137L74.3522 28.8986C77.6799 29.1337 78.1979 26.1774 78.7337 24.2395C82.6183 10.1687 93.2112 8.50843 105.337 9.4261C105.41 9.96538 105.611 10.5294 105.521 11.0422C102.347 29.2999 88.3541 29.5192 74.3505 29.7137Z" fill="#585858"/>
<path fill-rule="evenodd" clip-rule="evenodd" d="M78.2954 100.947C74.9005 107.724 67.3595 109.298 62.1558 113.803C57.8274 107.494 61.4769 100.24 59.7671 93.6196C65.1687 89.049 70.8533 84.9452 78.2954 81.7024C78.2954 88.7873 78.2954 94.8679 78.2954 100.947Z" fill="#525252"/>
<path fill-rule="evenodd" clip-rule="evenodd" d="M56.3018 114.641C50.1946 110.286 42.5563 107.931 38.4365 100.975C38.4365 94.7848 38.4365 88.5946 38.4365 80.3445C45.8981 85.7214 51.4288 89.7085 56.9613 93.6957C56.742 100.678 56.521 107.66 56.3018 114.641Z" fill="#525252"/>
<path fill-rule="evenodd" clip-rule="evenodd" d="M56.9604 93.6974C51.4297 89.7102 45.8972 85.7231 38.4357 80.3462C38.4357 88.5963 38.4357 94.7865 38.4357 100.977C37.6771 101.035 36.9186 101.092 36.1601 101.152C36.3351 95.9517 36.4005 90.7445 36.7241 85.5533C36.9398 82.109 36.1937 79.2658 33.1118 77.3633C33.3152 76.3484 33.5185 75.3335 33.7218 74.3186C34.4308 74.3804 35.1416 74.4423 35.8507 74.5042C36.7506 74.4689 37.6524 74.437 38.5524 74.4034C43.1654 80.8341 49.3168 84.9946 56.994 86.9042C57.871 86.9572 58.7498 87.012 59.6268 87.0651C67.8415 84.9946 73.9062 79.6583 79.6633 73.8571C84.3418 75.0506 86.5537 70.266 90.3959 69.4297C91.0784 69.969 91.7609 70.5082 92.4451 71.0493C78.2594 76.7462 79.4334 88.9411 79.8525 100.816C79.338 100.927 78.8199 100.971 78.2947 100.945C78.2947 94.8661 78.2947 88.7855 78.2947 81.6988C70.8527 84.9415 65.1681 89.0454 59.7665 93.616C58.8294 93.6443 57.8958 93.6708 56.9604 93.6974Z" fill="#E9E9E9"/>
<path fill-rule="evenodd" clip-rule="evenodd" d="M56.9608 93.6974C57.8961 93.6709 58.8315 93.6462 59.765 93.6196C61.4748 100.24 57.8254 107.494 62.1538 113.803C60.4864 116.059 58.294 114.655 56.3013 114.643C56.5205 107.66 56.7415 100.678 56.9608 93.6974Z" fill="#B7B7B7"/>
<path fill-rule="evenodd" clip-rule="evenodd" d="M33.7227 74.3185C33.5194 75.3317 33.3161 76.3466 33.1127 77.3633C29.6525 75.0293 26.194 72.6918 22.7373 70.3561C22.8505 69.3536 22.9654 68.3476 23.0803 67.3433C27.0869 68.9646 30.5277 71.4559 33.7227 74.3185Z" fill="#E2E2E2"/>
<path fill-rule="evenodd" clip-rule="evenodd" d="M24.1831 37.5696C24.8179 39.9707 25.4526 42.3736 26.1351 44.9533C22.1073 45.2963 23.2813 40.6709 20.5673 40.2748C21.3099 38.7525 22.4839 37.8083 24.1831 37.5696Z" fill="#545454"/>
<path fill-rule="evenodd" clip-rule="evenodd" d="M54.9342 42.8316C54.547 43.4876 54.1598 44.1418 53.7708 44.7978C53.5904 43.9827 53.4101 43.1693 53.2297 42.356C53.7991 42.5151 54.3684 42.6725 54.9342 42.8316Z" fill="#585858"/>
<path fill-rule="evenodd" clip-rule="evenodd" d="M59.6274 87.067C58.7504 87.014 57.8717 86.9592 56.9947 86.9061C57.175 79.0751 54.8181 71.0848 58.4552 63.4695C59.2844 64.0883 60.1154 64.7054 60.9465 65.3243C60.5062 72.5719 60.0677 79.8194 59.6274 87.067Z" fill="#B6B6B6"/>
<path fill-rule="evenodd" clip-rule="evenodd" d="M38.5528 74.4053C37.6528 74.4389 36.7511 74.4707 35.8511 74.5061C35.989 69.6295 36.0279 64.7477 36.3126 59.8818C36.4293 57.9015 35.2022 54.885 39.0903 54.8921C39.1416 55.4986 39.1946 56.1051 39.2459 56.708C39.016 62.6065 38.7844 68.505 38.5528 74.4053Z" fill="#E2E2E2"/>
<path fill-rule="evenodd" clip-rule="evenodd" d="M60.9462 65.324C60.1152 64.7051 59.2859 64.088 58.4549 63.4692C60.8808 58.0516 65.6989 57.0491 70.8884 56.7344C69.6666 62.0229 63.2236 61.2608 60.9462 65.324Z" fill="#585858"/>
<path fill-rule="evenodd" clip-rule="evenodd" d="M39.248 56.7059C39.1949 56.1012 39.1436 55.4948 39.0923 54.8901C43.3677 52.7507 46.0323 54.5754 47.8605 58.4564L47.8464 58.4706C44.9802 57.8818 42.1141 57.2947 39.248 56.7059Z" fill="#585858"/>
<path fill-rule="evenodd" clip-rule="evenodd" d="M47.8597 58.4548C49.7799 58.6741 52.1916 57.8749 52.8794 60.7251C53.1022 61.6516 52.7326 62.5817 51.6435 62.4897C49.2618 62.2899 47.9817 60.8772 47.8473 58.469L47.8597 58.4548Z" fill="#585858"/>
<path fill-rule="evenodd" clip-rule="evenodd" d="M30.6207 48.9847C30.1256 48.7708 29.36 48.6629 29.2186 48.3093C29.0771 47.9539 29.5651 47.351 29.7755 46.8577C30.2688 47.0716 31.0397 47.1777 31.1759 47.5278C31.3173 47.8867 30.8346 48.4879 30.6207 48.9847Z" fill="#545454"/>
<path fill-rule="evenodd" clip-rule="evenodd" d="M49.8902 34.7971C50.2191 35.1543 50.5161 35.4779 50.8132 35.7997C50.3924 36.1056 49.9928 36.4556 49.533 36.682C49.4252 36.7332 48.9018 36.2487 48.9231 36.2116C49.1936 35.7413 49.526 35.3063 49.8902 34.7971Z" fill="#565656"/>
<path fill-rule="evenodd" clip-rule="evenodd" d="M35.0095 50.6079C34.8628 50.9722 34.7143 51.3363 34.5657 51.6988C34.4614 51.4654 34.2439 51.2144 34.2775 51.0022C34.3394 50.6203 34.5516 50.2613 34.7001 49.8936C34.8044 50.1323 34.907 50.3692 35.0095 50.6079Z" fill="#B6B6B6"/>
<path fill-rule="evenodd" clip-rule="evenodd" d="M92.4452 71.0509C91.7627 70.5099 91.0802 69.9706 90.3959 69.4313C91.5028 68.9168 92.4523 67.0479 93.8509 69.0264C94.6554 70.5842 93.331 70.6655 92.4452 71.0509Z" fill="#FDFDFD"/>
</svg>
