<svg width="82" height="79" viewBox="0 0 82 79" fill="none" xmlns="http://www.w3.org/2000/svg">
<path fill-rule="evenodd" clip-rule="evenodd" d="M28.8712 39.0498C28.848 32.3607 34.7292 26.5502 41.5217 26.5488C48.2761 26.5488 54.2348 32.3892 54.243 39.0198C54.2525 45.7362 48.4149 51.4732 41.5584 51.4868C34.6993 51.5017 28.8943 45.811 28.8712 39.0498Z" fill="#040404"/>
<path fill-rule="evenodd" clip-rule="evenodd" d="M7.67076 57.6645C4.57374 57.5992 2.23024 56.0487 0.83067 53.1992C-0.499536 50.4926 0.02276 47.8893 1.97182 45.6831C3.87328 43.5287 6.76492 41.7809 9.11658 43.3736C13.7927 46.5427 17.9615 45.2506 22.371 43.4158C23.7488 42.8418 25.1008 42.6732 25.6489 44.3937C26.2243 46.2 24.8111 46.6434 23.4578 47.0174C18.9163 48.2701 14.5897 49.55 12.9753 54.9823C12.4475 56.7559 9.95305 57.519 7.67076 57.6645Z" fill="#040404"/>
<path fill-rule="evenodd" clip-rule="evenodd" d="M51.1978 25.2239C49.276 24.5153 48.6449 23.4204 49.6554 21.976C52.9306 17.2958 55.0347 12.7108 53.4366 6.49225C52.6246 3.33131 56.2276 1.00957 59.7054 0.688582C63.2295 0.366232 65.7934 2.04191 67.1154 5.40687C68.4783 8.87792 67.5302 12.6795 64.47 13.5445C58.7085 15.1726 55.3367 18.6001 52.9538 23.6612C52.6246 24.3589 51.716 24.7792 51.1978 25.2239Z" fill="#040404"/>
<path fill-rule="evenodd" clip-rule="evenodd" d="M63.2317 39.1518C65.9207 40.2099 67.6167 38.7451 69.6039 36.9905C73.2382 33.7861 77.12 34.2118 80.1735 37.9413C82.8692 41.2355 82.3945 44.8194 79.2948 47.5478C75.6469 50.7591 71.7135 50.3633 68.7144 46.6012C67.089 44.561 65.7384 42.9533 62.8808 42.8391C61.2758 42.7738 58.0782 43.9204 58.6617 40.4208C59.1051 37.7685 61.5723 39.3952 63.2317 39.1518Z" fill="#040404"/>
<path fill-rule="evenodd" clip-rule="evenodd" d="M56.0789 69.9667C56.2312 74.062 54.5133 76.2736 51.6149 77.5589C48.8946 78.7654 46.256 78.2145 44.0975 76.2627C41.7417 74.13 40.5176 71.1922 42.2518 68.4134C44.3749 65.0117 45.8765 61.9011 43.956 57.9364C43.4786 56.9516 43.6908 55.6949 45.0876 55.2447C46.0615 54.9318 47.3264 55.344 47.3359 56.0947C47.4067 61.5257 51.3388 64.0583 54.9268 67.0071C55.8 67.7238 55.8789 69.409 56.0789 69.9667Z" fill="#040404"/>
<path fill-rule="evenodd" clip-rule="evenodd" d="M12.0774 18.2532C12.3562 14.0191 14.5039 11.4689 18.81 11.239C23.0183 11.0146 25.9983 13.029 26.3057 17.3161C26.5179 20.2676 26.1914 23.0422 29.0776 24.9763C30.1236 25.6782 30.2106 26.8601 29.06 27.785C28.2371 28.446 27.3353 28.4637 26.7015 27.6449C24.5946 24.9247 21.7819 25.2783 18.7747 25.2592C14.493 25.2334 12.3317 22.5063 12.0774 18.2532Z" fill="#040404"/>
</svg>
