<svg width="96" height="96" viewBox="0 0 96 96" fill="none" xmlns="http://www.w3.org/2000/svg">
<path fill-rule="evenodd" clip-rule="evenodd" d="M47.996 95.6239C33.2875 95.6239 18.575 95.4851 3.87203 95.73C0.551961 95.7844 0.0786361 94.9397 0.0935975 91.8481C0.235051 62.6584 0.214645 33.4673 0.119436 4.27762C0.109915 1.44855 0.194254 0.263877 3.78227 0.28972C33.1978 0.508701 62.616 0.470618 92.0315 0.325085C95.0116 0.310123 95.4767 1.02691 95.4645 3.84781C95.338 33.2647 95.2699 62.6829 95.527 92.097C95.5597 95.9353 94.0418 95.6715 91.4412 95.6579C76.9599 95.5858 62.4773 95.6239 47.996 95.6239ZM47.8205 11.2918C36.7219 11.2918 25.6205 11.4414 14.5259 11.2292C8.95621 11.1218 6.86568 13.4313 6.9092 18.9262C7.0697 38.8562 7.04658 58.7916 6.92417 78.7215C6.89289 83.8343 8.82561 86.1778 14.107 86.1533C36.5301 86.0431 58.9545 86.0418 81.3776 86.1533C86.6032 86.1805 88.6692 83.9676 88.638 78.8004C88.5155 58.8691 88.4598 38.9351 88.6665 19.0051C88.7304 12.9566 86.1 11.0919 80.4337 11.2197C69.5676 11.4659 58.692 11.2918 47.8205 11.2918Z" fill="#FEFEFE"/>
<path fill-rule="evenodd" clip-rule="evenodd" d="M47.8204 11.2919C58.6906 11.2919 69.5662 11.466 80.435 11.2198C86.1013 11.0906 88.7318 12.9554 88.6678 19.0052C88.4611 38.9352 88.5169 58.8692 88.6393 78.8005C88.6705 83.9677 86.6045 86.1806 81.3789 86.1534C58.9558 86.0419 36.5314 86.0432 14.1083 86.1534C8.82693 86.1793 6.89282 83.8344 6.92546 78.7217C7.04787 58.7917 7.07101 38.8563 6.91052 18.9263C6.86699 13.4314 8.9575 11.1219 14.5272 11.2294C25.6204 11.4415 36.7218 11.2919 47.8204 11.2919ZM47.7062 80.3592C57.6569 80.3592 67.6144 80.1756 77.5569 80.4463C81.7706 80.5619 82.9716 79.1488 82.905 75.0262C82.6792 61.4603 82.6819 47.8862 82.9023 34.3203C82.9689 30.316 82.0767 28.8049 77.7066 28.8553C57.8065 29.0879 37.9024 29.0661 18.0024 28.8689C13.8757 28.8294 12.5714 29.9719 12.6475 34.172C12.8991 47.7366 12.9345 61.3134 12.6353 74.8766C12.5333 79.5636 14.2593 80.5674 18.5342 80.4463C28.2536 80.1716 37.9826 80.3606 47.7062 80.3592ZM64.4847 23.6079C65.2546 23.665 65.8762 22.3593 65.8639 20.5748C65.853 19.0773 65.2736 18.03 63.5408 17.9239C61.6393 17.8083 60.452 18.5414 60.388 20.5C60.3282 22.3076 61.1579 23.4991 64.4847 23.6079ZM82.8846 20.6605C82.7309 18.5876 81.6414 17.8301 79.7386 17.9198C78.0153 18.0028 77.4277 19.0039 77.3842 20.5245C77.3298 22.3484 77.9745 23.5888 80.0487 23.5535C82.0236 23.5181 82.7989 22.3593 82.8846 20.6605Z" fill="#040404"/>
<path fill-rule="evenodd" clip-rule="evenodd" d="M47.7064 80.3606C37.9829 80.3606 28.2525 80.1715 18.5358 80.4463C14.2609 80.5673 12.5349 79.5649 12.6369 74.8765C12.9361 61.3133 12.8994 47.7365 12.6491 34.172C12.5716 29.9705 13.876 28.828 18.0039 28.8688C37.904 29.0674 57.8081 29.0878 77.7082 28.8552C82.0783 28.8049 82.9705 30.3146 82.9038 34.3202C82.6835 47.8861 82.6808 61.4602 82.9066 75.0261C82.9746 79.1487 81.7722 80.5619 77.5585 80.4463C67.6146 80.1756 57.6585 80.3592 47.7064 80.3606ZM54.6213 45.1972C53.1021 51.9393 60.3964 50.8226 62.8433 54.3916C60.5814 55.5559 58.3698 56.6426 56.21 57.8232C54.907 58.5359 54.1698 59.6744 54.7805 61.1787C55.3803 62.6531 56.6316 63.1903 58.0774 62.5293C62.3795 60.5612 66.7428 58.6856 70.8654 56.3856C73.2225 55.0717 72.9912 52.7132 70.6586 51.6428C65.4044 49.2299 60.6494 45.4311 54.4867 45.3277C52.7403 43.2821 56.7431 39.2194 52.724 38.4958C48.4844 37.7328 48.9469 42.262 48.0614 44.6817C45.8254 50.8077 44.0219 57.0942 42.1422 63.3453C41.4907 65.5175 39.2179 68.5206 42.8494 69.5979C46.379 70.6452 46.1695 66.7933 47.0577 64.73C49.816 58.3102 50.1193 50.9423 54.6213 45.1972ZM32.7369 54.1658C33.2904 53.668 33.6278 53.3729 33.9569 53.0682C36.2093 50.9859 42.4523 51.1722 40.4624 47.1149C38.1298 42.3558 34.2466 47.4522 31.3767 48.573C28.4688 49.7073 23.5832 49.9957 23.522 53.8897C23.4526 58.2435 28.5953 58.3646 31.6338 59.7111C34.3445 60.9134 38.1665 65.3828 40.3196 61.38C42.6808 56.9854 36.4337 57.3254 34.2589 55.2757C33.9351 54.9738 33.5393 54.748 32.7369 54.1658Z" fill="#F8F8F8"/>
<path fill-rule="evenodd" clip-rule="evenodd" d="M64.4849 23.6077C61.1581 23.4989 60.327 22.3074 60.3869 20.4984C60.4522 18.5412 61.6382 17.8067 63.5397 17.9223C65.2725 18.0284 65.8519 19.0771 65.8627 20.5732C65.8777 22.3591 65.2561 23.6648 64.4849 23.6077Z" fill="#ECECEC"/>
<path fill-rule="evenodd" clip-rule="evenodd" d="M82.8851 20.6603C82.7994 22.3591 82.0241 23.5193 80.0478 23.5533C77.9736 23.5887 77.3289 22.3483 77.3833 20.5243C77.4268 19.0037 78.0158 18.0026 79.7377 17.9197C81.6419 17.8299 82.73 18.5861 82.8851 20.6603Z" fill="#EDEDED"/>
<path fill-rule="evenodd" clip-rule="evenodd" d="M54.6213 45.1958C50.118 50.9437 49.816 58.3115 47.0577 64.7286C46.1709 66.7933 46.379 70.6438 42.8494 69.5965C39.2179 68.5193 41.4907 65.5161 42.1422 63.344C44.0219 57.0928 45.8254 50.8063 48.0614 44.6803C48.9455 42.2606 48.4845 37.7328 52.724 38.4944C56.7432 39.218 52.7403 43.2821 54.4867 45.3264L54.6213 45.1958Z" fill="#040404"/>
<path fill-rule="evenodd" clip-rule="evenodd" d="M32.7372 54.1658C33.541 54.7479 33.9368 54.9737 34.2592 55.2757C36.434 57.3254 42.6811 56.9853 40.3199 61.3799C38.1668 65.3828 34.3448 60.9134 31.6341 59.711C28.5969 58.3645 23.4529 58.2435 23.5223 53.8897C23.5835 49.9956 28.4704 49.7073 31.377 48.573C34.2455 47.4522 38.1301 42.3558 40.4627 47.1149C42.4526 51.1722 36.2096 50.9858 33.9572 53.0682C33.6281 53.3728 33.2907 53.668 32.7372 54.1658Z" fill="#040404"/>
<path fill-rule="evenodd" clip-rule="evenodd" d="M54.4883 45.3277C60.6497 45.4297 65.4047 49.2286 70.6602 51.6428C72.9928 52.7132 73.2254 55.0717 70.867 56.3856C66.7444 58.6842 62.3811 60.5598 58.079 62.5293C56.6332 63.1889 55.3832 62.6531 54.7821 61.1787C54.1714 59.6757 54.9086 58.5373 56.2116 57.8232C58.3714 56.6426 60.583 55.5559 62.8449 54.3916C60.398 50.8227 53.1037 51.9393 54.6229 45.1958L54.4883 45.3277Z" fill="#040404"/>
</svg>
