<svg width="39" height="39" viewBox="0 0 39 39" fill="none" xmlns="http://www.w3.org/2000/svg">
<path fill-rule="evenodd" clip-rule="evenodd" d="M0 30.5526C0 21.0255 0 11.4986 0 1.97171C0.0255508 1.94783 0.063279 1.92897 0.0749799 1.8996C0.663366 0.460153 1.3456 0 2.89656 0C13.925 0 24.9534 0 35.9818 0C37.8145 0 38.8182 1.00007 38.8153 2.82898C38.8012 11.7732 38.7857 20.7172 38.7704 29.6612C38.7702 29.7873 38.7692 29.9138 38.7625 30.0397C38.6993 31.1816 38.1202 31.9452 37.0599 32.3519C36.9546 32.3925 36.8625 32.4001 36.836 32.5549C36.6557 33.6029 36.4004 33.8104 35.3335 33.8104C32.0744 33.8104 28.8149 33.8159 25.5559 33.8014C25.2433 33.7999 25.2211 33.911 25.217 34.166C25.2129 34.433 25.2597 34.5493 25.5625 34.5273C25.9771 34.4972 26.3959 34.5113 26.8126 34.5216C27.9118 34.5483 28.765 35.1866 28.9512 36.1446C29.0654 36.7302 29.0472 37.3291 28.9935 37.9194C28.9472 38.4227 28.5668 38.7399 28.0787 38.7399C22.2803 38.7408 16.482 38.7408 10.6834 38.7399C10.1838 38.7399 9.79289 38.3771 9.77666 37.8742C9.76066 37.3821 9.75612 36.888 9.78597 36.3968C9.84232 35.4648 10.6215 34.6758 11.5552 34.5581C12.0972 34.4901 12.6405 34.5187 13.1826 34.5266C13.4615 34.5306 13.5892 34.4817 13.5663 34.1617C13.5353 33.7219 13.5384 33.2767 13.5658 32.8364C13.584 32.5415 13.482 32.4828 13.2055 32.4849C11.5633 32.4978 9.92113 32.4937 8.27871 32.4897C7.79731 32.4885 7.532 32.2812 7.52651 31.9266C7.52102 31.5734 7.79181 31.3626 8.26557 31.3523C8.34103 31.3506 8.41697 31.3521 8.49291 31.3521C10.2234 31.3521 11.9542 31.3521 13.685 31.3521C15.7314 31.3521 17.7781 31.3404 19.8241 31.3623C20.205 31.3664 20.3038 31.2549 20.2635 30.9017C20.2339 30.6398 20.2556 30.3718 20.2582 30.1065C20.2664 29.2533 20.6866 28.8147 21.5355 28.8173C21.7941 28.818 21.8689 28.7366 21.8347 28.5002C21.824 28.4259 21.8218 28.3469 21.835 28.2733C21.898 27.9189 21.7762 27.8179 21.4006 27.8191C17.0044 27.8347 12.6083 27.8292 8.21208 27.8292C5.96361 27.8292 3.7149 27.8337 1.46643 27.823C1.20686 27.8218 1.11899 27.8755 1.13045 28.1496C1.15385 28.7046 1.1357 29.261 1.13784 29.8169C1.14119 30.7995 1.67012 31.3375 2.65466 31.3506C3.21057 31.3578 3.76648 31.3516 4.32215 31.3523C4.42316 31.3523 4.52441 31.3523 4.62518 31.3583C4.9657 31.3791 5.16485 31.5656 5.19876 31.8989C5.22956 32.1998 4.98337 32.4682 4.62996 32.4777C3.91071 32.4976 3.18932 32.5105 2.47103 32.4768C1.28733 32.4214 0.495252 31.8144 0.108407 30.688C0.0895424 30.6321 0.0809508 30.5614 0 30.5526ZM19.3929 7.73116C13.4297 7.73116 7.46657 7.73307 1.5032 7.72495C1.21903 7.72471 1.12901 7.77987 1.12973 8.08672C1.13999 14.1762 1.1388 20.2659 1.13212 26.3553C1.13212 26.6008 1.16268 26.6987 1.4478 26.6982C7.62561 26.6889 13.8037 26.6894 19.9815 26.6968C20.2324 26.697 20.2964 26.6292 20.2898 26.3826C20.2663 25.5368 20.2594 24.69 20.2621 23.8437C20.264 23.1851 20.614 22.7689 21.1936 22.639C21.4059 22.5915 21.7036 22.7438 21.8123 22.5256C21.903 22.3429 21.8326 22.08 21.8333 21.8524C21.8336 21.8144 21.8283 21.7758 21.834 21.7388C21.8741 21.4969 21.7834 21.4276 21.5324 21.4255C20.6852 21.4183 20.2637 20.976 20.2589 20.1252C20.2549 19.3417 20.2566 18.5585 20.2587 17.7753C20.2609 16.8507 20.6742 16.4373 21.6007 16.4368C23.9758 16.4354 26.3513 16.4361 28.7265 16.4368C28.84 16.4368 28.9548 16.4349 29.0668 16.4514C29.3598 16.4946 29.5169 16.6919 29.5327 16.9665C29.5485 17.2411 29.414 17.4582 29.1272 17.5269C28.9823 17.5618 28.828 17.5704 28.6778 17.5704C26.3658 17.573 24.0541 17.5775 21.7418 17.5654C21.4574 17.5639 21.3777 17.6339 21.3868 17.9205C21.4095 18.6146 21.4044 19.3102 21.3887 20.0046C21.3832 20.2444 21.462 20.2995 21.6905 20.2993C26.2636 20.2933 30.8375 20.2931 35.4106 20.2995C35.6391 20.2998 35.7158 20.2482 35.7103 20.008C35.694 19.3009 35.6895 18.5927 35.712 17.8858C35.7208 17.6021 35.6164 17.5625 35.3683 17.5666C34.4464 17.5807 33.5237 17.5799 32.6017 17.5682C32.1936 17.5632 31.94 17.3161 31.95 16.9832C31.9593 16.6563 32.1991 16.4409 32.594 16.4387C33.6426 16.4328 34.6914 16.428 35.7397 16.443C36.3612 16.4521 36.8204 16.8982 36.8338 17.519C36.8541 18.4534 36.851 19.389 36.835 20.3234C36.8254 20.8886 36.4458 21.2898 35.9027 21.4068C35.6964 21.4512 35.4041 21.3264 35.3029 21.5023C35.2036 21.6748 35.2699 21.9427 35.264 22.1688C35.263 22.2068 35.269 22.2455 35.263 22.2825C35.2203 22.542 35.3187 22.6192 35.5878 22.6223C36.4166 22.6314 36.84 23.0767 36.8395 23.8993C36.8393 24.7079 36.8453 25.5169 36.8211 26.3248C36.8123 26.6147 36.8787 26.7307 37.1851 26.6968C37.4263 26.6703 37.6455 26.7682 37.644 26.3372C37.6254 20.2601 37.6285 14.1833 37.6397 8.10654C37.6402 7.78131 37.5497 7.72352 37.2448 7.72376C31.2941 7.73355 25.3433 7.73116 19.3929 7.73116ZM19.4045 6.59307C25.355 6.59307 31.306 6.5914 37.2567 6.59833C37.5316 6.59856 37.6457 6.55964 37.6397 6.24014C37.6173 5.06575 37.6333 3.89041 37.6302 2.71555C37.6273 1.65292 37.1098 1.13833 36.0475 1.13833C24.9546 1.13809 13.8619 1.13809 2.76928 1.13833C1.71119 1.13833 1.18465 1.65866 1.18155 2.71293C1.17773 3.87513 1.19755 5.03781 1.17056 6.19978C1.16245 6.55224 1.2761 6.60048 1.59059 6.6C7.52866 6.59045 13.4665 6.59307 19.4045 6.59307ZM19.3704 37.6362C21.9209 37.6362 24.471 37.6362 27.0216 37.6362C27.8903 37.6362 27.8903 37.6362 27.8788 36.7693C27.869 36.0398 27.4874 35.6589 26.7498 35.6558C25.74 35.6518 24.7296 35.6549 23.7198 35.6549C19.8563 35.6549 15.9929 35.6652 12.1295 35.6451C11.4377 35.6415 10.8156 35.9782 10.9047 36.8894C10.9171 37.0143 10.9205 37.1438 10.9035 37.2675C10.8641 37.555 10.9584 37.6452 11.2648 37.6436C13.9665 37.6304 16.6685 37.6362 19.3704 37.6362ZM28.5054 26.4738C30.7911 26.4738 33.0771 26.468 35.3626 26.4812C35.647 26.4826 35.7222 26.4129 35.7127 26.1294C35.6897 25.4482 35.6936 24.7654 35.7112 24.0842C35.7179 23.8244 35.6525 23.741 35.381 23.7453C34.3332 23.7616 33.2851 23.7518 32.2368 23.7518C28.7516 23.7518 25.2664 23.7561 21.781 23.7446C21.467 23.7437 21.3743 23.8256 21.3861 24.1401C21.4104 24.7958 21.4106 25.4537 21.3858 26.1094C21.3743 26.4136 21.4694 26.4821 21.7624 26.4805C24.0097 26.4683 26.2577 26.4738 28.5054 26.4738ZM28.5377 32.6731C30.8224 32.6731 33.1077 32.6697 35.3922 32.6781C35.6272 32.6788 35.7189 32.6358 35.7117 32.3746C35.6919 31.6682 35.6943 30.9607 35.7108 30.2541C35.7165 30.0093 35.652 29.941 35.4018 29.9415C30.832 29.9496 26.2622 29.9499 21.6924 29.941C21.4295 29.9406 21.3839 30.0299 21.3887 30.2637C21.4023 30.9452 21.4097 31.6274 21.3858 32.3084C21.3755 32.6084 21.462 32.6822 21.759 32.6805C24.0187 32.6671 26.2782 32.6731 28.5377 32.6731ZM19.3706 34.5197C20.8471 34.5197 22.3233 34.5101 23.7995 34.5271C24.1267 34.5309 24.0878 34.3539 24.0906 34.1476C24.093 33.9451 24.1073 33.794 23.8088 33.8028C23.0399 33.826 22.2698 33.8143 21.5002 33.8093C20.7855 33.8045 20.3674 33.4489 20.2714 32.7428C20.2465 32.5594 20.2105 32.4859 20.0077 32.4868C18.3171 32.4952 16.6262 32.4957 14.9355 32.4866C14.719 32.4854 14.6915 32.5725 14.6948 32.7521C14.7039 33.2314 14.713 33.7118 14.6917 34.1901C14.6803 34.4492 14.7447 34.5295 15.0177 34.5266C16.4683 34.5118 17.9197 34.5197 19.3706 34.5197ZM28.546 28.8099C30.1366 28.8099 31.727 28.8099 33.3173 28.8099C34.1307 28.8099 34.1144 28.8096 34.1362 27.9896C34.1445 27.6677 34.0454 27.6018 33.7369 27.603C30.4425 27.6152 27.1481 27.6107 23.8537 27.6107C22.9566 27.6107 22.9692 27.6107 22.9621 28.5155C22.9599 28.7803 23.0528 28.8159 23.2828 28.8147C25.037 28.8061 26.7916 28.8099 28.546 28.8099ZM28.5398 21.4336C26.9494 21.4336 25.3586 21.4336 23.768 21.4336C22.9692 21.4336 22.9855 21.4341 22.9626 22.2297C22.9535 22.5397 23.0263 22.6235 23.3475 22.6223C26.6553 22.6087 29.9625 22.6137 33.2703 22.6137C34.1343 22.6137 34.1225 22.6137 34.1338 21.7605C34.1374 21.498 34.0736 21.4245 33.8045 21.4266C32.0496 21.4398 30.2947 21.4336 28.5398 21.4336ZM36.8405 31.2138C37.3171 30.9454 37.5862 30.6106 37.6046 30.1354C37.6323 29.4312 37.6218 28.7258 37.6335 28.0209C37.6359 27.8736 37.5824 27.8249 37.4356 27.8263C36.7808 27.832 36.1258 27.8337 35.4708 27.8256C35.2996 27.8234 35.2485 27.8901 35.2614 28.0479C35.2702 28.1606 35.2776 28.2767 35.2602 28.3872C35.2069 28.7256 35.3292 28.8271 35.6792 28.8206C36.3727 28.8082 36.8238 29.2856 36.8386 29.9855C36.8469 30.3728 36.8405 30.7603 36.8405 31.2138Z" fill="#040404"/>
<path fill-rule="evenodd" clip-rule="evenodd" d="M10.0933 3.84023C10.09 2.92088 9.34831 2.18611 8.42681 2.18922C7.51533 2.19232 6.75597 2.95288 6.76385 3.85504C6.7715 4.75815 7.54494 5.52492 8.44185 5.51895C9.34759 5.51298 10.0967 4.7517 10.0933 3.84023Z" fill="#FDFDFD"/>
<path fill-rule="evenodd" clip-rule="evenodd" d="M14.3361 3.863C14.3423 2.94222 13.6178 2.19934 12.7028 2.18883C11.7753 2.17832 11.0047 2.93458 11.0078 3.8513C11.0114 4.75108 11.7712 5.51235 12.6724 5.51808C13.5732 5.52453 14.3297 4.77161 14.3361 3.863Z" fill="#FDFDFD"/>
<path fill-rule="evenodd" clip-rule="evenodd" d="M5.8477 3.85099C5.84865 2.93163 5.1189 2.19424 4.20241 2.18875C3.27733 2.18326 2.50555 2.95193 2.52035 3.86364C2.5354 4.76867 3.30121 5.52516 4.1962 5.51919C5.10099 5.51299 5.84674 4.76007 5.8477 3.85099Z" fill="#FDFDFD"/>
<path fill-rule="evenodd" clip-rule="evenodd" d="M23.2342 11.2851C25.1405 11.2851 27.0472 11.2851 28.9538 11.2856C29.0796 11.2856 29.2088 11.278 29.3313 11.3014C29.6138 11.3551 29.7752 11.5399 29.7893 11.8239C29.8024 12.0908 29.6728 12.2912 29.4115 12.3683C29.2694 12.4103 29.1137 12.4194 28.9643 12.4194C25.1512 12.422 21.3382 12.4213 17.5254 12.4218C17.3735 12.4218 17.2221 12.4251 17.0769 12.3702C16.8207 12.2735 16.6908 12.0743 16.7082 11.8157C16.7271 11.5411 16.8835 11.3439 17.1746 11.2997C17.2988 11.2808 17.4265 11.2854 17.5526 11.2854C19.4464 11.2849 21.3406 11.2851 23.2342 11.2851Z" fill="#050505"/>
<path fill-rule="evenodd" clip-rule="evenodd" d="M12.714 16.5114C13.7375 16.5114 14.7607 16.5112 15.7839 16.5119C15.8976 16.5119 16.0125 16.5088 16.1242 16.5248C16.4098 16.5656 16.581 16.7354 16.604 17.0224C16.6281 17.3257 16.4881 17.5361 16.1849 17.6072C16.0516 17.6385 15.9105 17.6462 15.773 17.6464C13.7136 17.6488 11.6543 17.6481 9.59514 17.6476C9.49413 17.6476 9.39169 17.6509 9.29259 17.6352C8.95088 17.5807 8.75746 17.3596 8.77012 17.0497C8.78325 16.7383 8.99147 16.5341 9.34083 16.5171C9.63072 16.5031 9.92182 16.5117 10.2124 16.5114C11.0463 16.5112 11.8804 16.5114 12.714 16.5114Z" fill="#050505"/>
<path fill-rule="evenodd" clip-rule="evenodd" d="M5.43913 10.182C5.41668 10.3924 5.31401 10.5457 5.17598 10.6825C4.82687 11.0285 4.49495 11.3937 4.12721 11.7182C3.90107 11.918 3.93784 12.03 4.13843 12.213C4.50139 12.5437 4.84168 12.8995 5.18458 13.2517C5.49692 13.5726 5.51842 13.8993 5.25765 14.1469C5.00812 14.3836 4.69553 14.3597 4.39035 14.0603C3.84185 13.5218 3.29668 12.9797 2.75916 12.4303C2.44706 12.1117 2.43989 11.8206 2.74555 11.5057C3.29859 10.9361 3.86429 10.379 4.42832 9.82001C4.62318 9.62659 4.85361 9.55448 5.11605 9.67722C5.33335 9.77894 5.4174 9.96878 5.43913 10.182Z" fill="#060606"/>
<path fill-rule="evenodd" clip-rule="evenodd" d="M16.3371 21.2826C17.1325 21.2826 17.9281 21.2786 18.7238 21.2843C19.1751 21.2877 19.4189 21.4976 19.4134 21.8553C19.4079 22.1967 19.1689 22.4164 18.7434 22.4186C17.1521 22.4265 15.561 22.4265 13.9697 22.4188C13.5523 22.4169 13.2972 22.187 13.2903 21.8562C13.2834 21.51 13.5446 21.2877 13.988 21.2843C14.7708 21.2786 15.5538 21.2826 16.3371 21.2826Z" fill="#060606"/>
<path fill-rule="evenodd" clip-rule="evenodd" d="M9.13594 14.3098C8.71495 14.3158 8.43054 13.8411 8.64546 13.4736C8.7202 13.3458 8.83698 13.2419 8.93775 13.1302C9.30453 12.7219 9.75537 12.393 10.0677 11.9334C9.68636 11.5484 9.30524 11.1635 8.92365 10.7786C8.88855 10.7427 8.85154 10.7081 8.81715 10.6716C8.51317 10.349 8.48666 10.0252 8.7436 9.77658C8.9886 9.53994 9.30692 9.56358 9.60923 9.86088C10.1575 10.3998 10.7019 10.9433 11.2395 11.4928C11.5463 11.8063 11.5554 12.1108 11.2559 12.4183C10.7022 12.9872 10.1336 13.5421 9.57055 14.1023C9.45091 14.2215 9.3031 14.2859 9.13594 14.3098Z" fill="#040404"/>
<path fill-rule="evenodd" clip-rule="evenodd" d="M9.45358 20.0328C8.69708 20.0328 7.94035 20.0361 7.18362 20.0316C6.73087 20.029 6.47774 19.8258 6.47177 19.4774C6.46604 19.1325 6.728 18.8983 7.16738 18.8964C8.70569 18.8897 10.2445 18.8897 11.783 18.8964C12.2238 18.8983 12.48 19.1306 12.4731 19.48C12.4664 19.8308 12.2183 20.0287 11.7618 20.0314C10.9926 20.0361 10.2232 20.0328 9.45358 20.0328Z" fill="#050505"/>
<path fill-rule="evenodd" clip-rule="evenodd" d="M24.99 13.7847C25.7474 13.7847 26.5053 13.782 27.2628 13.7856C27.7163 13.7878 27.9694 13.9883 27.9754 14.3365C27.9816 14.6999 27.7191 14.9184 27.2461 14.9196C25.7434 14.9237 24.2409 14.9244 22.7381 14.9196C22.1861 14.9177 21.8871 14.5784 22.0454 14.1557C22.156 13.8608 22.3902 13.7823 22.6789 13.7835C23.4493 13.787 24.2194 13.7847 24.99 13.7847Z" fill="#050505"/>
<path fill-rule="evenodd" clip-rule="evenodd" d="M15.1536 13.7852C15.7964 13.7852 16.4399 13.7806 17.0828 13.7868C17.5069 13.7909 17.7447 13.9975 17.7469 14.3427C17.7488 14.6871 17.5105 14.9154 17.0921 14.9182C15.7933 14.9271 14.4945 14.9278 13.1959 14.918C12.7852 14.9149 12.54 14.6728 12.5488 14.3332C12.5577 13.991 12.7972 13.7907 13.2244 13.7866C13.8672 13.7806 14.5103 13.7849 15.1536 13.7852Z" fill="#050505"/>
<path fill-rule="evenodd" clip-rule="evenodd" d="M8.3327 10.2082C8.3038 10.303 8.27491 10.4262 8.2293 10.5428C7.80401 11.6326 7.378 12.722 6.94722 13.8097C6.78818 14.2111 6.55321 14.3627 6.24302 14.2849C5.85283 14.1865 5.70956 13.862 5.88245 13.4147C6.31418 12.3003 6.75428 11.1894 7.19533 10.0786C7.23616 9.97515 7.29442 9.87271 7.36702 9.78961C7.52653 9.60717 7.74169 9.57828 7.95612 9.65493C8.19181 9.73875 8.30452 9.93289 8.3327 10.2082Z" fill="#050505"/>
<path fill-rule="evenodd" clip-rule="evenodd" d="M32.2705 19.4911C31.6776 19.4911 31.0844 19.4945 30.491 19.4902C30.055 19.4868 29.788 19.2616 29.7954 18.9168C29.8028 18.5806 30.056 18.3581 30.4734 18.3557C31.685 18.3492 32.8964 18.3492 34.1083 18.3557C34.5212 18.3581 34.781 18.5868 34.7879 18.9183C34.7948 19.2648 34.5295 19.4868 34.0882 19.4902C33.4822 19.4947 32.8763 19.4911 32.2705 19.4911Z" fill="#040404"/>
<path fill-rule="evenodd" clip-rule="evenodd" d="M10.0217 21.2826C10.6153 21.2826 11.2095 21.2776 11.8031 21.2843C12.2274 21.2893 12.4751 21.4973 12.4839 21.8342C12.4925 22.1619 12.2329 22.4143 11.8272 22.4176C10.6144 22.4281 9.40157 22.4279 8.18898 22.4178C7.77969 22.4145 7.52155 22.1683 7.52656 21.8392C7.53158 21.5042 7.78302 21.2895 8.20282 21.2845C8.80888 21.2774 9.41541 21.2826 10.0217 21.2826Z" fill="#060606"/>
<path fill-rule="evenodd" clip-rule="evenodd" d="M5.3324 16.5121C5.93846 16.5121 6.54475 16.5066 7.15081 16.514C7.54362 16.519 7.78862 16.7308 7.80223 17.052C7.81632 17.3856 7.56392 17.6401 7.15797 17.6437C5.93296 17.6545 4.70772 17.655 3.48247 17.6435C3.08751 17.6397 2.85874 17.4085 2.85755 17.078C2.85612 16.7275 3.08894 16.519 3.51352 16.5138C4.11957 16.5066 4.72611 16.5119 5.3324 16.5121Z" fill="#050505"/>
<path fill-rule="evenodd" clip-rule="evenodd" d="M4.90463 21.283C5.35786 21.283 5.81108 21.2763 6.26407 21.2851C6.67313 21.2932 6.89282 21.4847 6.90643 21.821C6.92075 22.1682 6.68937 22.4113 6.27673 22.4175C5.34568 22.4316 4.41367 22.4318 3.48238 22.4167C3.07118 22.4103 2.84217 22.1639 2.85984 21.8152C2.87679 21.4795 3.09529 21.2925 3.50745 21.2849C3.97285 21.2765 4.43874 21.2827 4.90463 21.283Z" fill="#060606"/>
<path fill-rule="evenodd" clip-rule="evenodd" d="M24.2482 19.4912C23.8201 19.4912 23.3919 19.4969 22.9638 19.4893C22.57 19.4823 22.3321 19.2734 22.3212 18.9448C22.3099 18.611 22.5654 18.3614 22.9669 18.3567C23.8232 18.3464 24.6797 18.3462 25.5358 18.3567C25.9413 18.3617 26.1822 18.6031 26.1712 18.9482C26.1609 19.2777 25.9272 19.4828 25.5329 19.4895C25.1045 19.4967 24.6764 19.4912 24.2482 19.4912Z" fill="#040404"/>
<path fill-rule="evenodd" clip-rule="evenodd" d="M14.0883 11.2887C14.4159 11.2887 14.7438 11.2785 15.0707 11.2916C15.389 11.3045 15.5872 11.4757 15.6202 11.8005C15.6519 12.1138 15.4623 12.3838 15.1264 12.3982C14.4353 12.428 13.7411 12.4273 13.0503 12.3982C12.72 12.3843 12.5206 12.1042 12.5557 11.8007C12.5925 11.48 12.7838 11.3102 13.1059 11.2885C13.131 11.2868 13.1561 11.2852 13.1811 11.2852C13.4839 11.2849 13.786 11.2849 14.0886 11.2849C14.0883 11.2866 14.0883 11.2878 14.0883 11.2887Z" fill="#050505"/>
<path fill-rule="evenodd" clip-rule="evenodd" d="M17.7007 20.0273C17.3862 20.0273 17.071 20.0393 16.7572 20.0242C16.4392 20.0092 16.2412 19.8337 16.219 19.5084C16.1968 19.1827 16.3651 18.9578 16.6822 18.9265C17.3576 18.8606 18.0381 18.8618 18.7139 18.926C19.0327 18.9561 19.2018 19.1832 19.1805 19.5058C19.1595 19.827 18.9649 20.0099 18.6437 20.0242C18.3297 20.0381 18.015 20.0271 17.7007 20.0273Z" fill="#060606"/>
<path fill-rule="evenodd" clip-rule="evenodd" d="M19.9498 13.7913C20.2275 13.7913 20.5059 13.7785 20.7829 13.7947C21.0883 13.8126 21.2746 13.9929 21.3011 14.2957C21.3295 14.619 21.1657 14.8528 20.846 14.8881C20.2315 14.9562 19.6107 14.9524 18.9958 14.8905C18.6737 14.8583 18.5032 14.618 18.5273 14.3057C18.5516 13.9948 18.7494 13.8007 19.0782 13.7909C19.3685 13.782 19.6594 13.789 19.9498 13.789C19.9498 13.7899 19.9498 13.7906 19.9498 13.7913Z" fill="#060606"/>
<path fill-rule="evenodd" clip-rule="evenodd" d="M4.22399 20.0273C3.94794 20.0271 3.67094 20.0381 3.3949 20.0242C3.07348 20.0078 2.88269 19.826 2.86311 19.5032C2.84352 19.1792 3.01211 18.9576 3.33018 18.9253C3.92931 18.8647 4.5337 18.8601 5.13283 18.9277C5.45353 18.9638 5.62188 19.1973 5.59729 19.5106C5.57293 19.821 5.37998 20.0142 5.05307 20.0254C4.77703 20.035 4.50051 20.0273 4.22399 20.0273Z" fill="#060606"/>
<path fill-rule="evenodd" clip-rule="evenodd" d="M14.4731 20.0209C14.2845 20.0209 14.0944 20.0359 13.9074 20.0175C13.6192 19.9889 13.4523 19.8079 13.4224 19.5268C13.3924 19.2441 13.5184 19.0153 13.7983 18.9501C14.2417 18.847 14.6995 18.8472 15.1437 18.9499C15.423 19.0146 15.5551 19.2453 15.5245 19.5237C15.4944 19.7974 15.333 19.9915 15.0393 20.0178C14.8519 20.0342 14.662 20.0206 14.4731 20.0209Z" fill="#060606"/>
<path fill-rule="evenodd" clip-rule="evenodd" d="M27.9394 19.4835C27.7882 19.4835 27.6354 19.4985 27.4866 19.4802C27.2032 19.4453 27.0255 19.2765 26.9938 18.9923C26.9594 18.6883 27.1038 18.4624 27.3992 18.3977C27.7937 18.3115 28.2023 18.3079 28.5963 18.4022C28.875 18.4691 29.0013 18.6895 28.9793 18.9751C28.9566 19.2636 28.7876 19.44 28.506 19.4775C28.3207 19.5024 28.129 19.4823 27.9401 19.4823C27.9396 19.4825 27.9396 19.483 27.9394 19.4835Z" fill="#050505"/>
<path fill-rule="evenodd" clip-rule="evenodd" d="M10.0933 3.84023C10.0967 4.7517 9.34759 5.51298 8.44185 5.51895C7.5447 5.52492 6.7715 4.75815 6.76385 3.85504C6.75597 2.95288 7.51509 2.19232 8.42681 2.18922C9.34831 2.18611 10.09 2.92088 10.0933 3.84023ZM8.43373 4.37632C8.71407 4.3768 8.966 4.12392 8.9512 3.83904C8.9352 3.53004 8.76088 3.35333 8.45284 3.33113C8.16843 3.31083 7.91053 3.55822 7.9048 3.83856C7.89931 4.11126 8.15936 4.37584 8.43373 4.37632Z" fill="#040404"/>
<path fill-rule="evenodd" clip-rule="evenodd" d="M14.3361 3.86301C14.3299 4.77162 13.5734 5.52453 12.6725 5.51832C11.7715 5.51235 11.0114 4.75108 11.0078 3.85155C11.0045 2.93458 11.7753 2.17857 12.7028 2.18907C13.6178 2.19934 14.3423 2.94222 14.3361 3.86301ZM12.6801 3.32931C12.3923 3.32787 12.1435 3.57383 12.1481 3.85537C12.1528 4.13046 12.421 4.3874 12.6937 4.37809C12.9607 4.36877 13.1916 4.13141 13.1968 3.86038C13.203 3.56333 12.9764 3.33074 12.6801 3.32931Z" fill="#040404"/>
<path fill-rule="evenodd" clip-rule="evenodd" d="M5.8477 3.85098C5.84675 4.76007 5.10099 5.51298 4.19621 5.51895C3.30121 5.52468 2.5354 4.76819 2.52036 3.8634C2.50531 2.95169 3.27733 2.18301 4.20242 2.18851C5.1189 2.194 5.84866 2.93163 5.8477 3.85098ZM4.70842 3.85361C4.71152 3.55655 4.48324 3.32803 4.1857 3.32946C3.89795 3.33113 3.6403 3.58139 3.66442 3.86149C3.69092 4.16404 3.87217 4.34528 4.17472 4.37203C4.45578 4.39686 4.70579 4.14183 4.70842 3.85361Z" fill="#040404"/>
<path fill-rule="evenodd" clip-rule="evenodd" d="M32.3002 24.5567C32.9058 24.5567 33.5111 24.5524 34.1167 24.5582C34.5277 24.562 34.7872 24.7867 34.7865 25.1198C34.7858 25.4522 34.5286 25.6862 34.1155 25.6888C32.8919 25.6967 31.6684 25.6974 30.4448 25.6881C30.0403 25.685 29.7857 25.4338 29.7979 25.0995C29.8096 24.7774 30.0565 24.5629 30.4457 24.5589C31.0637 24.5522 31.682 24.557 32.3002 24.5567Z" fill="#040404"/>
<path fill-rule="evenodd" clip-rule="evenodd" d="M24.2773 24.5574C24.705 24.5574 25.1331 24.5507 25.5608 24.5595C25.9293 24.5672 26.154 24.772 26.169 25.0899C26.1848 25.4249 25.9629 25.6776 25.5809 25.685C24.7002 25.7014 23.8191 25.7 22.9384 25.6866C22.5578 25.6809 22.3156 25.4314 22.3209 25.1109C22.3266 24.7823 22.5666 24.5664 22.9561 24.5593C23.3959 24.5509 23.8367 24.5571 24.2773 24.5574Z" fill="#040404"/>
<path fill-rule="evenodd" clip-rule="evenodd" d="M27.9806 24.5623C28.1442 24.5623 28.3092 24.5491 28.4713 24.5651C28.7732 24.5952 28.9542 24.7691 28.9785 25.0742C29.0029 25.3794 28.8548 25.5941 28.5573 25.6543C28.1862 25.729 27.8046 25.7249 27.4328 25.6576C27.136 25.6036 26.972 25.3952 26.9927 25.0888C27.0145 24.7683 27.2067 24.5885 27.5274 24.5627C27.6776 24.5508 27.8295 24.5608 27.9804 24.5608C27.9806 24.5611 27.9806 24.5618 27.9806 24.5623Z" fill="#060606"/>
<path fill-rule="evenodd" clip-rule="evenodd" d="M32.286 31.8759C31.6928 31.8759 31.0997 31.8812 30.5067 31.8742C30.058 31.8687 29.8006 31.6579 29.797 31.3145C29.7935 30.9707 30.0525 30.7457 30.4957 30.7433C31.6945 30.7364 32.893 30.7362 34.092 30.7433C34.5297 30.7459 34.7954 30.9821 34.7861 31.3222C34.7771 31.6522 34.5244 31.8668 34.103 31.8733C33.4974 31.8828 32.8913 31.8759 32.286 31.8759Z" fill="#080808"/>
<path fill-rule="evenodd" clip-rule="evenodd" d="M24.2583 30.741C24.6738 30.7412 25.0893 30.7328 25.5045 30.7434C25.9384 30.7546 26.1658 30.9523 26.1715 31.2988C26.1777 31.6601 25.9432 31.869 25.4878 31.8736C24.6571 31.8819 23.8263 31.8824 22.9955 31.8733C22.571 31.8688 22.3276 31.6558 22.3209 31.3198C22.3138 30.9731 22.5686 30.7529 23.0125 30.7429C23.4275 30.7336 23.8428 30.7407 24.2583 30.741Z" fill="#080808"/>
<path fill-rule="evenodd" clip-rule="evenodd" d="M27.9996 31.8632C27.8362 31.8632 27.6717 31.8766 27.5098 31.8603C27.1905 31.8283 26.9973 31.6435 26.9911 31.3216C26.9849 31.0014 27.1628 30.8006 27.4845 30.7616C27.8221 30.7208 28.1629 30.7217 28.501 30.7623C28.8102 30.7996 28.9745 30.9947 28.9798 31.296C28.985 31.6163 28.815 31.8171 28.4893 31.8574C28.3274 31.8775 28.1631 31.8754 27.9998 31.8832C28 31.8765 27.9998 31.8699 27.9996 31.8632Z" fill="#080808"/>
<path fill-rule="evenodd" clip-rule="evenodd" d="M12.6804 3.32911C12.9768 3.33054 13.2031 3.56312 13.1974 3.85994C13.1922 4.13097 12.9612 4.36857 12.6943 4.37765C12.4213 4.38696 12.1532 4.13002 12.1486 3.85493C12.1439 3.57363 12.3927 3.32768 12.6804 3.32911Z" fill="#F8F8F8"/>
<path fill-rule="evenodd" clip-rule="evenodd" d="M4.70868 3.85375C4.70582 4.14197 4.4558 4.397 4.17498 4.37217C3.87243 4.34542 3.69143 4.16418 3.66468 3.86163C3.64033 3.58152 3.89822 3.33127 4.18596 3.3296C4.4835 3.32816 4.71179 3.55669 4.70868 3.85375Z" fill="#F8F8F8"/>
</svg>
