<svg width="44" height="39" viewBox="0 0 44 39" fill="none" xmlns="http://www.w3.org/2000/svg">
<path fill-rule="evenodd" clip-rule="evenodd" d="M36.7039 9.12683C36.5193 9.12683 36.334 9.12444 36.1495 9.1273C35.6802 9.13518 35.3934 9.3649 35.3808 9.74005C35.3676 10.1276 35.6702 10.397 36.1518 10.4087C36.5497 10.4182 36.9487 10.4239 37.3458 10.4058C37.5789 10.3951 37.6345 10.4822 37.6262 10.6983C37.6111 11.0959 37.6147 11.4945 37.6245 11.8923C37.6357 12.3555 37.8857 12.6416 38.263 12.6457C38.6393 12.6497 38.8946 12.3613 38.9046 11.9023C38.913 11.5188 38.9269 11.1332 38.9004 10.7511C38.8796 10.4552 38.9985 10.3931 39.2636 10.4058C39.6607 10.4242 40.0602 10.4228 40.4575 10.4053C40.8809 10.3867 41.161 10.1102 41.1562 9.75127C41.1512 9.38663 40.8718 9.13733 40.441 9.12874C40.0573 9.12086 39.6721 9.11035 39.2898 9.13208C39.0016 9.14832 38.881 9.07095 38.9001 8.75932C38.9252 8.3486 38.9163 7.93453 38.8996 7.52285C38.8839 7.14365 38.6336 6.89029 38.2969 6.87405C37.9485 6.85734 37.6648 7.11715 37.6307 7.50829C37.6106 7.73419 37.6226 7.96271 37.6223 8.19028C37.6219 9.12683 37.6221 9.12683 36.7039 9.12683Z" fill="#FDFDFD"/>
<path fill-rule="evenodd" clip-rule="evenodd" d="M7.99805 22.7318C6.87309 22.7318 5.74814 22.7308 4.62295 22.732C4.08614 22.7327 3.78622 22.9615 3.78359 23.3653C3.78072 23.7696 4.08757 24.0124 4.61507 24.0127C6.85088 24.0143 9.08646 24.0146 11.3223 24.0127C11.8505 24.0122 12.1421 23.7691 12.1325 23.3519C12.1232 22.9548 11.84 22.733 11.3304 22.732C10.2195 22.7303 9.10891 22.7318 7.99805 22.7318Z" fill="#FDFDFD"/>
<path fill-rule="evenodd" clip-rule="evenodd" d="M6.26535 21.1185C6.89051 21.1185 7.51567 21.1244 8.14083 21.1163C8.57162 21.1108 8.85053 20.8591 8.86008 20.4931C8.86963 20.1153 8.57472 19.8407 8.12603 19.8385C6.91797 19.8326 5.71016 19.8323 4.50211 19.8388C4.07586 19.8411 3.79194 20.1019 3.78334 20.4656C3.7745 20.8481 4.06201 21.1113 4.51715 21.117C5.09957 21.1244 5.68246 21.1189 6.26535 21.1185Z" fill="#FDFDFD"/>
<path fill-rule="evenodd" clip-rule="evenodd" d="M0.25243 4.96265C0.266042 4.95811 0.288727 4.95715 0.291831 4.9488C0.788282 3.55783 1.82273 3.12251 3.22994 3.15642C5.46432 3.21062 7.7011 3.17098 9.93692 3.17122C10.0649 3.17122 10.197 3.15642 10.3204 3.18125C10.6693 3.25122 10.8821 3.46255 10.8708 3.83101C10.8596 4.19517 10.6507 4.41247 10.2887 4.4459C10.0346 4.4693 9.77645 4.45354 9.52022 4.45354C7.28441 4.45378 5.04859 4.45259 2.81277 4.4545C1.93974 4.45521 1.53475 4.85997 1.53451 5.73132C1.53379 12.2535 1.53785 18.7756 1.52472 25.298C1.52376 25.66 1.64842 25.7028 1.95813 25.7025C12.6386 25.6956 23.3193 25.6968 33.9996 25.6973C34.1703 25.6973 34.343 25.6923 34.5116 25.7145C34.8361 25.7572 35.0221 25.9561 35.0465 26.2806C35.0723 26.6238 34.9125 26.8635 34.5744 26.9431C34.3979 26.9844 34.2078 26.9786 34.0235 26.9786C23.3573 26.9801 12.6909 26.9829 2.02451 26.9691C1.60901 26.9688 1.50753 27.0677 1.52305 27.4758C1.55767 28.3861 1.53021 29.2983 1.53499 30.2097C1.53881 30.9615 1.9321 31.3705 2.67785 31.4102C2.79152 31.4161 2.90566 31.4123 3.01956 31.4123C15.7649 31.4125 28.5105 31.4125 41.256 31.4116C41.4263 31.4116 41.5987 31.4104 41.7671 31.3882C42.3249 31.3146 42.7019 30.9223 42.711 30.3566C42.7275 29.3171 42.7036 28.2772 42.7256 27.2382C42.7323 26.9208 42.5491 26.981 42.3738 26.9808C40.9069 26.9796 39.44 26.9803 37.9731 26.9796C37.8454 26.9796 37.715 26.9879 37.5899 26.9684C37.2338 26.9127 37.0292 26.6961 37.0093 26.3375C36.991 26.0051 37.2598 25.7391 37.6271 25.7061C37.7826 25.692 37.9404 25.6975 38.0968 25.6973C39.521 25.6968 40.9451 25.6899 42.3691 25.7032C42.6453 25.7056 42.7249 25.6366 42.7244 25.351C42.7158 18.7718 42.7191 12.1926 42.7158 5.61336C42.7153 4.90152 42.2828 4.45832 41.5767 4.45712C38.2016 4.45091 34.8265 4.45426 31.4517 4.45545C31.4144 4.45545 31.3769 4.47097 31.301 4.48793C31.6394 4.97029 31.967 5.42853 32.2473 5.9183C36.3252 13.0398 31.9804 22.0822 23.8683 23.3502C17.4725 24.35 11.5141 20.0259 10.4367 13.6029C9.38244 7.31714 13.766 1.21264 20.0775 0.166253C21.9219 -0.139402 23.7339 -0.0247814 25.5203 0.519905C25.6017 0.54474 25.6834 0.569813 25.7629 0.600617C26.1381 0.746759 26.3138 1.06268 26.2118 1.4032C26.1108 1.74085 25.7796 1.92114 25.394 1.81321C24.6955 1.6174 23.997 1.43687 23.2728 1.35353C18.196 0.768728 13.4586 3.89238 12.0077 8.78954C10.1965 14.9019 14.2944 21.2531 20.609 22.1211C26.4148 22.9192 31.8111 18.784 32.4341 12.9512C32.8544 9.01258 31.4111 5.7946 28.286 3.34482C28.1967 3.27462 28.0997 3.21349 28.0123 3.14066C27.7029 2.88157 27.6384 2.52768 27.8435 2.2373C28.0613 1.92902 28.4286 1.871 28.7822 2.12244C29.1292 2.36936 29.4704 2.62988 29.7856 2.91548C29.9896 3.1003 30.1909 3.17791 30.4671 3.17719C33.9705 3.16836 37.4743 3.20967 40.9764 3.15331C42.4565 3.12967 43.5076 3.59341 44 5.04861C44 13.6786 44 22.3086 44 30.9383C43.8233 31.0431 43.8324 31.2504 43.7469 31.4056C43.2304 32.3429 42.4168 32.7023 41.3778 32.7001C36.8794 32.6918 32.3808 32.7004 27.8822 32.6891C27.5379 32.6882 27.4254 32.7658 27.4309 33.1283C27.4533 34.5087 27.4555 35.8901 27.4302 37.2706C27.4232 37.6427 27.5388 37.7248 27.8822 37.7019C28.3357 37.6715 28.7927 37.6902 29.2486 37.6957C29.741 37.7014 30.022 37.9502 30.0108 38.3586C30.0001 38.753 29.7364 38.9761 29.2531 38.9763C24.4414 38.9782 19.6298 38.9782 14.8181 38.9761C14.3474 38.9758 14.0802 38.733 14.0824 38.3361C14.0845 37.9452 14.3584 37.7031 14.825 37.6961C15.2947 37.6892 15.7654 37.6763 16.2339 37.7012C16.5508 37.7181 16.6675 37.6479 16.6613 37.2947C16.6372 35.9568 16.6515 34.6186 16.6515 33.2804C16.6515 32.697 16.6515 32.697 16.0706 32.697C11.6861 32.697 7.30136 32.6896 2.91712 32.7018C1.68877 32.7054 0.805475 32.2309 0.3575 31.0527C0.336725 30.9982 0.31977 30.9467 0.251953 30.9388C0.252431 22.2797 0.25243 13.621 0.25243 4.96265ZM22.0397 32.6963C20.7879 32.6963 19.5359 32.7039 18.2839 32.6901C18.0131 32.687 17.9248 32.7481 17.9279 33.0356C17.9436 34.4583 17.9451 35.8811 17.9274 37.3036C17.9236 37.6133 17.9871 37.705 18.3162 37.7026C20.8056 37.6866 23.2955 37.6887 25.7849 37.7004C26.0724 37.7019 26.1693 37.6479 26.1653 37.336C26.1467 35.9136 26.149 34.4908 26.1639 33.0683C26.167 32.7777 26.1034 32.6836 25.7954 32.6882C24.5439 32.7073 23.2916 32.6963 22.0397 32.6963Z" fill="#040404"/>
<path fill-rule="evenodd" clip-rule="evenodd" d="M19.9371 17.7063C19.0746 17.6292 19.0178 17.5678 18.858 16.7115C18.2816 13.6244 17.6937 10.5395 17.127 7.45091C17.0523 7.04305 16.903 6.82885 16.4646 6.91004C16.382 6.92532 16.2941 6.91506 16.2088 6.91171C15.7551 6.89404 15.4724 6.63543 15.4824 6.24882C15.492 5.87034 15.7554 5.64181 16.2 5.63083C16.3707 5.62653 16.5417 5.6282 16.7125 5.63059C17.6029 5.64205 18.2102 6.11844 18.3231 7.00866C18.3862 7.50535 18.5774 7.60206 19.0445 7.59824C21.9485 7.57484 24.8529 7.58583 27.7573 7.58678C28.6158 7.58702 28.8883 7.92754 28.7273 8.76069C28.3684 10.6161 28.0191 12.4734 27.664 14.3296C27.562 14.8618 27.3722 15.0194 26.8194 15.0199C24.6268 15.0223 22.4344 15.029 20.2418 15.013C19.896 15.0104 19.8461 15.098 19.9175 15.4178C20.1356 16.397 20.1234 16.3997 21.1101 16.3997C22.9753 16.3997 24.8403 16.3973 26.7052 16.4016C27.1305 16.4028 27.3884 16.6237 27.4116 16.983C27.4357 17.3532 27.2444 17.5714 26.9015 17.6672C26.8215 17.6894 26.7317 17.6801 26.6467 17.6818C26.5335 17.6837 26.4203 17.6822 26.2732 17.6822C26.3996 18.0151 26.567 18.3112 26.4929 18.6673C26.4223 19.0073 26.2608 19.2764 25.9767 19.4682C25.5435 19.7604 24.9489 19.7225 24.5482 19.3853C24.0792 18.9911 24.0145 18.443 24.3608 17.7028C23.5341 17.7028 22.7167 17.7028 21.8682 17.7028C21.9829 18.0196 22.1679 18.3286 22.0791 18.6887C21.9938 19.035 21.8171 19.3156 21.5069 19.5021C21.0793 19.7592 20.4942 19.7041 20.1157 19.3726C19.6556 18.9705 19.6021 18.4686 19.9371 17.7063ZM19.9431 10.6629C20.1566 10.6629 20.3717 10.6455 20.5831 10.6672C20.8469 10.6942 20.9379 10.6094 20.9061 10.3384C20.8581 9.9291 20.8333 9.51623 20.8171 9.10431C20.8097 8.91734 20.7356 8.85979 20.5582 8.8648C20.2313 8.87435 19.9037 8.86743 19.5763 8.86743C18.7028 8.86743 18.7028 8.86743 18.8504 9.72469C19.0118 10.6629 19.0118 10.6629 19.9431 10.6629ZM26.1367 10.6627C26.3069 10.6627 26.48 10.6417 26.6462 10.6672C26.9932 10.7202 27.1116 10.5629 27.1479 10.2383C27.1902 9.86009 27.2697 9.48423 27.3578 9.11338C27.4037 8.9214 27.3662 8.85835 27.168 8.8648C26.8569 8.87507 26.545 8.86743 26.2334 8.86743C25.3529 8.86743 25.3529 8.86743 25.2818 9.72302C25.2037 10.6627 25.2037 10.6627 26.1367 10.6627ZM23.0323 10.6629C23.9431 10.6629 23.9507 10.6631 23.9856 9.85484C23.9992 9.53485 24.2089 9.10813 23.9928 8.92641C23.7986 8.76307 23.3722 8.86958 23.0481 8.86862C22.0459 8.86528 22.0459 8.86743 22.1507 9.86869C22.2343 10.6629 22.2343 10.6629 23.0323 10.6629ZM20.1544 11.9433C19.9703 11.9433 19.7852 11.9555 19.6023 11.9402C19.3542 11.9197 19.2312 11.9598 19.3201 12.2583C19.4082 12.5549 19.4844 12.8663 19.492 13.1729C19.5051 13.6894 19.7621 13.8112 20.2189 13.7436C20.5097 13.7004 20.8918 13.8658 21.079 13.6815C21.2717 13.4917 21.0826 13.1218 21.0735 12.8307C21.0454 11.9428 21.0368 11.9431 20.1544 11.9433ZM25.9697 11.9433C25.1359 11.9433 25.1364 11.9433 25.0731 12.7602C25.0621 12.9014 25.0423 13.042 25.0291 13.1831C24.978 13.7388 24.9787 13.7388 25.5201 13.739C26.4652 13.739 26.4652 13.739 26.6489 12.7989C26.8158 11.9433 26.8158 11.9433 25.9697 11.9433ZM23.0758 11.9433C22.3222 11.9433 22.3222 11.9433 22.3563 12.7072C22.3606 12.8063 22.3635 12.9057 22.3704 13.0045C22.4196 13.739 22.4218 13.7085 23.1484 13.7503C23.5971 13.7761 23.8065 13.6691 23.7494 13.1917C23.7315 13.0408 23.7795 12.8825 23.7919 12.7268C23.8533 11.9433 23.8526 11.9433 23.0758 11.9433Z" fill="#030303"/>
<path fill-rule="evenodd" clip-rule="evenodd" d="M36.7039 9.12707C37.6221 9.12707 37.6219 9.12707 37.6223 8.19077C37.6226 7.9632 37.6106 7.73467 37.6307 7.50877C37.6648 7.11763 37.9485 6.85783 38.2969 6.87454C38.6336 6.89054 38.8839 7.1439 38.8996 7.52334C38.9163 7.93502 38.9252 8.34909 38.9001 8.75981C38.881 9.07144 39.0016 9.1488 39.2898 9.13257C39.6724 9.11107 40.0573 9.12158 40.441 9.12922C40.8718 9.13782 41.1514 9.38736 41.1562 9.75176C41.1612 10.1107 40.8811 10.3872 40.4575 10.4058C40.0602 10.4232 39.6607 10.4247 39.2636 10.4063C38.9985 10.3939 38.8796 10.456 38.9004 10.7516C38.9266 11.1337 38.913 11.5193 38.9046 11.9028C38.8946 12.3618 38.6396 12.6502 38.263 12.6462C37.8857 12.6421 37.6357 12.356 37.6245 11.8928C37.6147 11.4949 37.6111 11.0964 37.6262 10.6988C37.6345 10.4827 37.5789 10.3955 37.3458 10.4063C36.9487 10.4244 36.5497 10.4187 36.1518 10.4092C35.67 10.3975 35.3676 10.1281 35.3808 9.74053C35.3934 9.36515 35.6802 9.13543 36.1495 9.12779C36.334 9.12469 36.5193 9.12707 36.7039 9.12707Z" fill="#060606"/>
<path fill-rule="evenodd" clip-rule="evenodd" d="M7.99805 22.732C9.10867 22.732 10.2195 22.7305 11.3304 22.7324C11.8402 22.7334 12.1232 22.9552 12.1325 23.3523C12.1421 23.7695 11.8505 24.0126 11.3223 24.0131C9.08646 24.015 6.85065 24.0148 4.61507 24.0131C4.08757 24.0128 3.78072 23.7698 3.78359 23.3657C3.78598 22.9619 4.08614 22.7332 4.62295 22.7324C5.74814 22.731 6.87309 22.732 7.99805 22.732Z" fill="#020202"/>
<path fill-rule="evenodd" clip-rule="evenodd" d="M6.26535 21.1187C5.68246 21.1189 5.0998 21.1244 4.51715 21.117C4.06177 21.1113 3.7745 20.8481 3.78334 20.4656C3.79218 20.1019 4.0761 19.8409 4.50211 19.8388C5.71016 19.8323 6.91797 19.8326 8.12603 19.8385C8.57472 19.8407 8.86963 20.1153 8.86008 20.4931C8.85053 20.8591 8.57162 21.1106 8.14083 21.1163C7.51567 21.1244 6.89051 21.1185 6.26535 21.1187Z" fill="#040404"/>
</svg>
