<svg width="36" height="37" viewBox="0 0 36 37" fill="none" xmlns="http://www.w3.org/2000/svg">
<path fill-rule="evenodd" clip-rule="evenodd" d="M5.14039 25.9442C5.13419 26.3039 5.34265 26.5357 5.68508 26.5491C6.0244 26.5627 6.31334 26.2814 6.32409 25.9273C6.33388 25.6092 6.07813 25.3301 5.76125 25.3136C5.41883 25.2954 5.14708 25.5712 5.14039 25.9442Z" fill="#FDFDFD"/>
<path fill-rule="evenodd" clip-rule="evenodd" d="M5.73276 27.6816C5.38985 27.6816 5.13601 27.9644 5.14031 28.3407C5.14461 28.6946 5.36693 28.9186 5.71365 28.9181C6.04988 28.9174 6.33022 28.6187 6.32425 28.2669C6.31876 27.9484 6.04892 27.6816 5.73276 27.6816Z" fill="#FDFDFD"/>
<path fill-rule="evenodd" clip-rule="evenodd" d="M5.14003 30.7154C5.14648 31.0671 5.37286 31.2899 5.71934 31.2863C6.05533 31.2825 6.33304 30.9809 6.32349 30.6294C6.31489 30.3104 6.04291 30.0465 5.72651 30.0501C5.3836 30.0541 5.13311 30.3383 5.14003 30.7154Z" fill="#FDFDFD"/>
<path fill-rule="evenodd" clip-rule="evenodd" d="M30.0052 5.96374C30.0097 6.31095 30.2442 6.55046 30.5793 6.55046C30.9035 6.55022 31.1961 6.23214 31.1894 5.88709C31.1832 5.564 30.9176 5.303 30.5967 5.30396C30.2473 5.30515 30.0004 5.58072 30.0052 5.96374Z" fill="#FDFDFD"/>
<path fill-rule="evenodd" clip-rule="evenodd" d="M30.0051 8.31538C30.0032 8.6676 30.226 8.90807 30.5627 8.91881C30.8853 8.92932 31.1862 8.61842 31.1893 8.27193C31.1922 7.94884 30.9345 7.68043 30.6133 7.67207C30.2635 7.66348 30.007 7.93427 30.0051 8.31538Z" fill="#FDFDFD"/>
<path fill-rule="evenodd" clip-rule="evenodd" d="M30.0051 10.6883C30.0051 11.0393 30.2308 11.2793 30.5675 11.2871C30.8906 11.2945 31.1891 10.9813 31.1893 10.6352C31.1895 10.3124 30.9295 10.0461 30.6083 10.0406C30.2587 10.034 30.0051 10.3064 30.0051 10.6883Z" fill="#FDFDFD"/>
<path fill-rule="evenodd" clip-rule="evenodd" d="M18.1949 0.567023C20.3036 0.567023 22.4127 0.565355 24.5219 0.567504C26.3711 0.569415 27.636 1.82856 27.6374 3.6742C27.6403 7.25107 27.6427 10.8277 27.6305 14.4044C27.6296 14.71 27.6981 14.7898 28.0081 14.7843C29.1182 14.7645 29.1438 14.7733 29.3348 15.8756C29.4325 16.4389 29.6323 16.7861 30.2238 16.9931C30.6816 17.1536 31.0056 17.193 31.3731 16.8711C31.5656 16.7027 31.8056 16.5891 32.0229 16.4491C32.3121 16.2634 32.5845 16.2863 32.8279 16.5258C33.2849 16.9754 33.7398 17.4275 34.1883 17.886C34.4149 18.1178 34.4359 18.3836 34.2654 18.6616C34.2267 18.7246 34.1868 18.7864 34.1472 18.849C33.9299 19.1919 33.571 19.5207 33.5347 19.8818C33.4993 20.2376 33.7938 20.6249 33.9358 21.0015C33.9836 21.128 34.0488 21.1947 34.1928 21.2219C34.5913 21.2978 34.9839 21.4053 35.3815 21.4872C35.7538 21.5638 35.9293 21.7847 35.9276 22.1601C35.9255 22.7645 35.9262 23.3691 35.9274 23.9733C35.9281 24.3298 35.7667 24.5535 35.4109 24.6323C35.0147 24.7202 34.6195 24.8141 34.2238 24.9067C33.9315 24.975 33.4365 26.1594 33.5963 26.4123C33.8067 26.7454 34.0182 27.0778 34.2365 27.4057C34.4454 27.7197 34.4192 28.0036 34.1531 28.2701C33.7174 28.7064 33.2837 29.1448 32.8486 29.5818C32.5957 29.8359 32.3195 29.8691 32.0155 29.6728C31.6747 29.4519 31.333 29.232 30.9887 29.0166C30.7334 28.8568 29.5499 29.3571 29.4826 29.652C29.3923 30.0477 29.3142 30.4465 29.2151 30.8402C29.1213 31.2116 28.8331 31.4088 28.5172 31.3419C28.1905 31.2729 28.0002 30.9845 28.0716 30.6096C28.184 30.0174 28.3202 29.4297 28.4465 28.8401C28.5012 28.5848 28.6619 28.4375 28.9112 28.3709C29.4606 28.224 29.9819 28.0081 30.4714 27.7183C30.7226 27.5692 30.9619 27.5927 31.2 27.7464C31.4999 27.9401 31.8087 28.1211 32.0991 28.3279C32.2533 28.4373 32.3412 28.4129 32.4713 28.2885C33.0399 27.7443 33.044 27.7488 32.6208 27.0931C32.5406 26.9687 32.4689 26.8385 32.3799 26.7211C32.1523 26.4211 32.137 26.1286 32.339 25.8005C32.5974 25.3805 32.7915 24.9268 32.9016 24.443C32.9826 24.0898 33.1918 23.889 33.5509 23.8309C33.7692 23.7961 33.9877 23.7517 34.2 23.691C34.3812 23.6392 34.672 23.6936 34.72 23.5074C34.7917 23.2299 34.7499 22.92 34.7351 22.6248C34.7286 22.4937 34.5803 22.5226 34.4965 22.5013C34.1632 22.4166 33.8265 22.3409 33.4881 22.2776C33.1875 22.2217 33.005 22.0562 32.9305 21.7618C32.7939 21.2217 32.5757 20.7147 32.2932 20.2357C32.1454 19.9849 32.1609 19.7464 32.3166 19.5071C32.511 19.2077 32.6948 18.9011 32.8985 18.6081C32.9995 18.4626 33.0029 18.3719 32.8723 18.2334C32.33 17.6603 32.3359 17.6546 31.6738 18.0782C31.5391 18.1644 31.398 18.2422 31.27 18.337C30.9767 18.5548 30.6926 18.5536 30.3805 18.3631C29.9482 18.0994 29.4821 17.9067 28.9885 17.7861C28.67 17.7085 28.4761 17.5242 28.4216 17.1873C28.3701 16.872 28.2652 16.5642 28.2294 16.2478C28.1957 15.9472 28.019 15.9498 27.7967 15.9567C27.52 15.9656 27.646 16.1712 27.6448 16.2813C27.6339 17.2555 27.6439 18.2298 27.6341 19.2041C27.632 19.4223 27.6637 19.509 27.9207 19.5293C29.3687 19.6423 30.6047 20.6378 31.0281 21.9956C31.4608 23.383 31.0192 24.8687 29.8976 25.8003C29.8408 25.8476 29.7835 25.8948 29.7235 25.9378C29.373 26.1866 29.0239 26.1594 28.8111 25.8678C28.6019 25.582 28.6578 25.2611 28.9976 25.0046C29.5237 24.6073 29.8487 24.096 29.9719 23.4486C30.22 22.1434 29.1815 20.7949 27.865 20.6975C27.5945 20.6774 27.6386 20.8288 27.6386 20.9843C27.6389 22.711 27.6389 24.438 27.6389 26.1644C27.6389 28.4339 27.6408 30.7029 27.6384 32.9724C27.636 34.8216 26.3749 36.0865 24.53 36.0875C20.2872 36.0899 16.0448 36.0899 11.8019 36.0875C9.95722 36.0865 8.69496 34.8209 8.69376 32.9727C8.69185 29.4082 8.68732 25.8437 8.7026 22.2797C8.70427 21.9282 8.59801 21.8664 8.2785 21.8724C7.21038 21.8915 7.18292 21.8838 7.00168 20.8081C6.90449 20.2321 6.71775 19.8648 6.10071 19.6571C5.65417 19.5064 5.34278 19.4658 4.98292 19.7703C4.77828 19.9436 4.53065 20.0669 4.30141 20.2111C4.0108 20.3938 3.74048 20.3642 3.49763 20.123C3.05133 19.68 2.60645 19.2351 2.16278 18.7893C1.92184 18.5472 1.88912 18.2781 2.07204 17.9865C2.11789 17.9134 2.16469 17.8413 2.20982 17.7678C2.42258 17.4229 2.77743 17.0886 2.80585 16.729C2.83259 16.3873 2.50043 16.026 2.39297 15.6454C2.35501 15.5109 2.26976 15.4579 2.13054 15.4307C1.72029 15.3502 1.31411 15.249 0.906249 15.1563C0.569312 15.0794 0.406695 14.8633 0.405979 14.5228C0.404546 13.9062 0.40574 13.2894 0.40574 12.6729C0.40574 12.3149 0.573371 12.0928 0.930128 12.0217C1.00248 12.0071 1.07293 11.9828 1.14504 11.9672C2.36193 11.7067 2.35739 11.7048 2.8025 10.5648C2.85456 10.4311 2.81229 10.3575 2.75331 10.2658C2.53434 9.92365 2.31728 9.58003 2.09353 9.24142C1.88434 8.92526 1.91969 8.64348 2.1857 8.37842C2.61386 7.95217 3.03533 7.51853 3.46515 7.09419C3.76627 6.79666 3.98501 6.77683 4.35418 7.00512C4.67846 7.20618 5.00632 7.40319 5.31723 7.62383C5.48224 7.74108 5.61501 7.75469 5.78073 7.6415C5.88102 7.57321 5.99732 7.5073 6.11409 7.4882C6.72539 7.38791 6.9458 6.98936 6.98974 6.42055C7.00741 6.18964 7.07188 5.95945 7.13922 5.73641C7.2345 5.42025 7.52893 5.24856 7.82313 5.31566C8.12496 5.38467 8.33295 5.65761 8.27373 5.9807C8.15815 6.60991 8.01774 7.23484 7.8759 7.85857C7.82217 8.09521 7.64952 8.22679 7.41551 8.28816C6.86533 8.43239 6.34523 8.6516 5.85523 8.94054C5.60283 9.08931 5.3638 9.06065 5.12691 8.90639C4.83798 8.71846 4.54283 8.53961 4.25938 8.3438C4.10655 8.23849 4.00626 8.2232 3.8551 8.37173C3.29919 8.91713 3.29155 8.90973 3.71422 9.56761C3.79373 9.69202 3.86728 9.82144 3.9554 9.9394C4.18153 10.2412 4.19085 10.535 3.98954 10.8609C3.73021 11.2812 3.54061 11.7358 3.42647 12.2189C3.34815 12.5518 3.16022 12.7612 2.80919 12.8157C2.60287 12.8479 2.3999 12.9019 2.19597 12.9482C1.58944 13.0857 1.6126 13.0872 1.58108 13.7066C1.56412 14.0373 1.68448 14.1269 1.98822 14.1935C3.44748 14.514 3.24164 14.311 3.62753 15.5668C3.7166 15.8567 3.88256 16.1251 4.03085 16.3937C4.17676 16.6583 4.177 16.9048 4.0108 17.1574C3.81475 17.4554 3.63685 17.7666 3.42862 18.0557C3.31567 18.2126 3.34815 18.2991 3.47041 18.4275C4.0065 18.9901 4.00196 18.9942 4.66891 18.5689C4.8141 18.476 4.96453 18.3905 5.10471 18.2909C5.36523 18.1059 5.62623 18.0975 5.89798 18.2611C6.36482 18.5419 6.86342 18.7475 7.39019 18.8844C7.68391 18.9605 7.84939 19.1401 7.90384 19.4429C7.96712 19.7937 8.06669 20.1383 8.12448 20.49C8.17272 20.783 8.38262 20.6817 8.54691 20.6942C8.76779 20.7109 8.69042 20.5375 8.6909 20.4365C8.69591 19.4374 8.68588 18.4383 8.69997 17.4397C8.70308 17.2016 8.63693 17.1459 8.40053 17.1261C6.95559 17.0053 5.69644 16.0112 5.30625 14.6465C4.88358 13.1686 5.26876 11.9011 6.41401 10.8702C6.478 10.8127 6.54725 10.7604 6.6177 10.7109C6.96872 10.4645 7.32333 10.4932 7.5306 10.7826C7.73788 11.0715 7.6808 11.3903 7.341 11.6463C6.81446 12.0422 6.48588 12.5511 6.36123 13.1989C6.11026 14.5018 7.13874 15.85 8.46046 15.9553C8.67012 15.972 8.69926 15.8954 8.69759 15.7141C8.68971 14.8511 8.694 13.9877 8.694 13.1242C8.694 9.99146 8.69329 6.85898 8.69424 3.72626C8.69472 1.80732 9.94074 0.567501 11.8685 0.567023C13.9766 0.566546 16.0858 0.567023 18.1949 0.567023ZM9.87746 18.316C9.87746 23.1874 9.87746 28.059 9.8777 32.9304C9.8777 34.1845 10.595 34.9043 11.8456 34.9043C16.051 34.9052 20.2566 34.905 24.462 34.9045C25.7431 34.9042 26.4535 34.1955 26.4535 32.917C26.4542 23.1862 26.4542 13.4556 26.4535 3.72506C26.4535 2.46806 25.7388 1.75215 24.4854 1.75192C20.28 1.7512 16.0744 1.7512 11.869 1.75167C10.5867 1.75191 9.8777 2.45922 9.8777 3.73843C9.87722 8.59787 9.87746 13.4571 9.87746 18.316Z" fill="#020202"/>
<path fill-rule="evenodd" clip-rule="evenodd" d="M5.14039 25.9442C5.14708 25.571 5.41883 25.2954 5.76125 25.3133C6.07813 25.3298 6.33364 25.609 6.32409 25.927C6.31334 26.2812 6.02464 26.5624 5.68508 26.5488C5.34265 26.5357 5.13419 26.3038 5.14039 25.9442Z" fill="#070707"/>
<path fill-rule="evenodd" clip-rule="evenodd" d="M5.73276 27.6816C6.04892 27.6816 6.31876 27.9484 6.32425 28.2669C6.32998 28.6187 6.04988 28.9174 5.71365 28.9181C5.36693 28.9186 5.14461 28.6946 5.14031 28.3407C5.13601 27.9641 5.38985 27.6816 5.73276 27.6816Z" fill="#070707"/>
<path fill-rule="evenodd" clip-rule="evenodd" d="M5.14003 30.7151C5.13311 30.3381 5.3836 30.0539 5.72651 30.0498C6.04291 30.046 6.31489 30.3101 6.32349 30.6292C6.33304 30.9807 6.05533 31.2823 5.71934 31.2861C5.37286 31.2897 5.14648 31.0666 5.14003 30.7151Z" fill="#070707"/>
<path fill-rule="evenodd" clip-rule="evenodd" d="M30.0052 5.96398C30.0004 5.58096 30.2473 5.30515 30.5967 5.30396C30.9179 5.303 31.1832 5.56425 31.1894 5.88709C31.1961 6.23215 30.9038 6.55022 30.5793 6.55046C30.2442 6.5507 30.0097 6.31143 30.0052 5.96398Z" fill="#0A0A0A"/>
<path fill-rule="evenodd" clip-rule="evenodd" d="M30.0051 8.31515C30.007 7.93404 30.2635 7.66325 30.6133 7.67209C30.9345 7.68044 31.1922 7.94884 31.1893 8.27193C31.1862 8.61842 30.8853 8.92933 30.5627 8.91882C30.226 8.90808 30.0032 8.66737 30.0051 8.31515Z" fill="#0A0A0A"/>
<path fill-rule="evenodd" clip-rule="evenodd" d="M30.0051 10.6885C30.0051 10.3066 30.259 10.0344 30.6083 10.0406C30.9295 10.0461 31.1895 10.3126 31.1893 10.6352C31.1891 10.9812 30.8906 11.2948 30.5675 11.2871C30.2308 11.2793 30.0051 11.0393 30.0051 10.6885Z" fill="#0A0A0A"/>
<path fill-rule="evenodd" clip-rule="evenodd" d="M15.2572 15.3699C15.4562 15.3916 15.6376 15.496 15.7398 15.7205C15.8654 15.9958 15.7781 16.2246 15.5806 16.4235C15.0428 16.9655 14.5165 17.52 13.9556 18.0372C13.696 18.2765 13.7347 18.409 13.9673 18.6278C14.4964 19.1249 15.0015 19.6481 15.5132 20.1642C15.8463 20.4997 15.886 20.834 15.6326 21.1017C15.369 21.3806 15.0158 21.3455 14.6698 21.0004C13.9549 20.2874 13.2404 19.5736 12.5281 18.8577C12.135 18.4628 12.1381 18.191 12.5383 17.7891C13.2507 17.0735 13.9666 16.3611 14.6789 15.6452C14.83 15.4934 14.9881 15.3627 15.2572 15.3699Z" fill="#060606"/>
<path fill-rule="evenodd" clip-rule="evenodd" d="M21.1267 21.2903C20.8822 21.2743 20.6904 21.1663 20.5849 20.9256C20.471 20.6651 20.5443 20.4418 20.7322 20.2522C21.2864 19.6918 21.8364 19.1263 22.4083 18.584C22.617 18.3858 22.6222 18.2741 22.4097 18.0735C21.8631 17.5584 21.3406 17.0178 20.8115 16.4843C20.4817 16.1522 20.4461 15.8126 20.7055 15.5478C20.966 15.2818 21.3141 15.3109 21.6432 15.6373C22.3684 16.358 23.0917 17.0806 23.8119 17.8061C24.1899 18.1872 24.1897 18.4701 23.8119 18.851C23.0917 19.5765 22.3663 20.2971 21.6446 21.0212C21.5018 21.1642 21.349 21.281 21.1267 21.2903Z" fill="#060606"/>
<path fill-rule="evenodd" clip-rule="evenodd" d="M17.6349 21.2857C17.2082 21.2948 16.9042 20.9552 16.9973 20.571C17.3813 18.9847 17.7791 17.4022 18.1827 15.8209C18.2687 15.4837 18.5829 15.3078 18.889 15.3813C19.2124 15.4587 19.4151 15.7744 19.3299 16.1211C18.9461 17.6818 18.5531 19.2404 18.1605 20.7995C18.0865 21.093 17.8952 21.2609 17.6349 21.2857Z" fill="#050505"/>
<path fill-rule="evenodd" clip-rule="evenodd" d="M18.1649 4.11992C17.6114 4.11992 17.0576 4.12278 16.5041 4.11896C16.0669 4.11586 15.8051 3.89522 15.7996 3.53607C15.7942 3.17526 16.0578 2.93789 16.4867 2.93646C17.6061 2.93264 18.7261 2.93264 19.8455 2.93646C20.2739 2.93789 20.538 3.17645 20.5318 3.53703C20.5258 3.89498 20.262 4.1161 19.8259 4.1192C19.2724 4.12254 18.7187 4.11992 18.1649 4.11992Z" fill="#030303"/>
</svg>
