<svg width="45" height="40" viewBox="0 0 45 40" fill="none" xmlns="http://www.w3.org/2000/svg">
<path fill-rule="evenodd" clip-rule="evenodd" d="M37.033 9.23767C36.8484 9.23767 36.6631 9.23528 36.4786 9.23814C36.0093 9.24602 35.7225 9.47574 35.7099 9.85089C35.6968 10.2384 35.9993 10.5078 36.4809 10.5195C36.8788 10.5291 37.2778 10.5348 37.6749 10.5166C37.908 10.5059 37.9636 10.5931 37.9553 10.8092C37.9402 11.2068 37.9438 11.6053 37.9536 12.0031C37.9648 12.4664 38.2148 12.7525 38.5921 12.7565C38.9684 12.7606 39.2237 12.4721 39.2337 12.0132C39.2421 11.6297 39.256 11.244 39.2295 10.8619C39.2087 10.5661 39.3276 10.504 39.5927 10.5166C39.9898 10.535 40.3893 10.5336 40.7866 10.5162C41.21 10.4975 41.4901 10.221 41.4853 9.86211C41.4803 9.49747 41.2009 9.24817 40.7701 9.23958C40.3864 9.2317 40.0012 9.22119 39.6189 9.24292C39.3307 9.25916 39.2101 9.18179 39.2292 8.87016C39.2543 8.45944 39.2454 8.04537 39.2287 7.63369C39.213 7.25449 38.9627 7.00113 38.626 6.98489C38.2776 6.96818 37.9939 7.22799 37.9598 7.61913C37.9397 7.84503 37.9517 8.07355 37.9514 8.30112C37.951 9.23767 37.9512 9.23767 37.033 9.23767Z" fill="#FDFDFD"/>
<path fill-rule="evenodd" clip-rule="evenodd" d="M8.32715 22.8426C7.20219 22.8426 6.07724 22.8417 4.95205 22.8429C4.41524 22.8436 4.11532 23.0723 4.11269 23.4761C4.10983 23.8804 4.41667 24.1233 4.94417 24.1235C7.17999 24.1252 9.41556 24.1254 11.6514 24.1235C12.1796 24.123 12.4712 23.8799 12.4616 23.4628C12.4523 23.0656 12.1691 22.8438 11.6595 22.8429C10.5486 22.8412 9.43801 22.8426 8.32715 22.8426Z" fill="#FDFDFD"/>
<path fill-rule="evenodd" clip-rule="evenodd" d="M6.59445 21.2293C7.21961 21.2293 7.84478 21.2353 8.46993 21.2271C8.90072 21.2217 9.17963 20.97 9.18918 20.6039C9.19873 20.2261 8.90382 19.9515 8.45513 19.9494C7.24708 19.9434 6.03926 19.9432 4.83121 19.9496C4.40496 19.952 4.12104 20.2127 4.11244 20.5764C4.10361 20.959 4.39111 21.2221 4.84625 21.2279C5.42867 21.2353 6.01156 21.2298 6.59445 21.2293Z" fill="#FDFDFD"/>
<path fill-rule="evenodd" clip-rule="evenodd" d="M0.581532 5.07349C0.595143 5.06895 0.617829 5.06799 0.620933 5.05964C1.11738 3.66867 2.15183 3.23335 3.55904 3.26726C5.79343 3.32146 8.0302 3.28182 10.266 3.28206C10.394 3.28206 10.5261 3.26726 10.6495 3.29209C10.9984 3.36206 11.2112 3.57339 11.1999 3.94185C11.1887 4.30601 10.9798 4.52331 10.6178 4.55674C10.3637 4.58014 10.1055 4.56438 9.84933 4.56438C7.61351 4.56462 5.37769 4.56343 3.14187 4.56534C2.26884 4.56605 1.86385 4.97081 1.86361 5.84216C1.8629 12.3643 1.86695 18.8865 1.85382 25.4088C1.85287 25.7709 1.97752 25.8136 2.28723 25.8134C12.9677 25.8064 23.6485 25.8076 34.3287 25.8081C34.4994 25.8081 34.6721 25.8031 34.8407 25.8253C35.1652 25.868 35.3512 26.067 35.3756 26.3915C35.4014 26.7346 35.2416 26.9744 34.9035 27.0539C34.727 27.0952 34.5369 27.0895 34.3526 27.0895C23.6864 27.0909 13.02 27.0938 2.35362 27.0799C1.93812 27.0797 1.83663 27.1785 1.85215 27.5866C1.88677 28.4969 1.85931 29.4091 1.86409 30.3206C1.86791 31.0723 2.2612 31.4814 3.00695 31.521C3.12062 31.527 3.23476 31.5231 3.34867 31.5231C16.094 31.5234 28.8396 31.5234 41.5851 31.5224C41.7554 31.5224 41.9278 31.5212 42.0962 31.499C42.654 31.4255 43.031 31.0331 43.0401 30.4674C43.0566 29.428 43.0327 28.388 43.0547 27.349C43.0614 27.0317 42.8782 27.0919 42.7029 27.0916C41.236 27.0904 39.7691 27.0911 38.3022 27.0904C38.1745 27.0904 38.0441 27.0988 37.919 27.0792C37.5629 27.0236 37.3583 26.807 37.3384 26.4483C37.3201 26.1159 37.5889 25.8499 37.9562 25.8169C38.1117 25.8029 38.2695 25.8083 38.4259 25.8081C39.8501 25.8076 41.2742 25.8007 42.6982 25.8141C42.9744 25.8165 43.054 25.7475 43.0535 25.4619C43.0449 18.8826 43.0482 12.3034 43.0449 5.7242C43.0444 5.01236 42.6119 4.56916 41.9058 4.56796C38.5307 4.56175 35.1556 4.5651 31.7808 4.56629C31.7435 4.56629 31.706 4.58181 31.6301 4.59877C31.9685 5.08113 32.2961 5.53937 32.5764 6.02914C36.6543 13.1507 32.3095 22.193 24.1974 23.461C17.8016 24.4608 11.8432 20.1368 10.7658 13.7137C9.71154 7.42798 14.0951 1.32348 20.4066 0.277093C22.251 -0.0285619 24.063 0.0860584 25.8494 0.630745C25.9308 0.655579 26.0125 0.680653 26.092 0.711457C26.4672 0.857599 26.6429 1.17352 26.5409 1.51404C26.4399 1.85169 26.1087 2.03198 25.7231 1.92405C25.0246 1.72824 24.3261 1.54771 23.6019 1.46437C18.5251 0.879568 13.7877 4.00322 12.3368 8.90038C10.5256 15.0128 14.6235 21.3639 20.9382 22.2319C26.7439 23.03 32.1402 18.8948 32.7632 13.0621C33.1835 9.12341 31.7402 5.90544 28.6151 3.45566C28.5258 3.38546 28.4288 3.32433 28.3414 3.2515C28.032 2.99241 27.9675 2.63852 28.1726 2.34814C28.3904 2.03986 28.7577 1.98183 29.1113 2.23328C29.4583 2.4802 29.7995 2.74072 30.1147 3.02632C30.3187 3.21114 30.52 3.28875 30.7962 3.28803C34.2996 3.2792 37.8034 3.32051 41.3055 3.26415C42.7856 3.24051 43.8367 3.70425 44.3291 5.15945C44.3291 13.7894 44.3291 22.4194 44.3291 31.0491C44.1524 31.154 44.1615 31.3612 44.076 31.5165C43.5595 32.4537 42.7459 32.8131 41.7069 32.811C37.2085 32.8026 32.7099 32.8112 28.2113 32.8C27.867 32.799 27.7545 32.8766 27.76 33.2391C27.7824 34.6196 27.7846 36.001 27.7593 37.3815C27.7523 37.7535 27.8679 37.8356 28.2113 37.8127C28.6648 37.7824 29.1218 37.801 29.5777 37.8065C30.0701 37.8122 30.3511 38.0611 30.3399 38.4694C30.3292 38.8639 30.0655 39.0869 29.5822 39.0871C24.7705 39.0891 19.9589 39.0891 15.1472 39.0869C14.6765 39.0867 14.4093 38.8438 14.4115 38.4469C14.4136 38.056 14.6875 37.8139 15.1541 37.807C15.6238 37.8001 16.0945 37.7872 16.563 37.812C16.8799 37.8289 16.9966 37.7587 16.9904 37.4056C16.9663 36.0676 16.9806 34.7294 16.9806 33.3912C16.9806 32.8078 16.9806 32.8078 16.3997 32.8078C12.0152 32.8078 7.63046 32.8004 3.24622 32.8126C2.01787 32.8162 1.13458 32.3417 0.686601 31.1635C0.665826 31.1091 0.648872 31.0575 0.581055 31.0496C0.581532 22.3905 0.581532 13.7319 0.581532 5.07349ZM22.3688 32.8071C21.117 32.8071 19.865 32.8148 18.613 32.8009C18.3422 32.7978 18.2539 32.859 18.257 33.1465C18.2727 34.5692 18.2742 35.9919 18.2565 37.4144C18.2527 37.7241 18.3162 37.8158 18.6453 37.8134C21.1347 37.7974 23.6246 37.7996 26.114 37.8113C26.4015 37.8127 26.4984 37.7587 26.4944 37.4469C26.4758 36.0244 26.4781 34.6017 26.493 33.1792C26.4961 32.8886 26.4325 32.7945 26.1245 32.799C24.873 32.8181 23.6207 32.8071 22.3688 32.8071Z" fill="#040404"/>
<path fill-rule="evenodd" clip-rule="evenodd" d="M20.2662 17.8172C19.4037 17.7401 19.3469 17.6787 19.1871 16.8224C18.6107 13.7353 18.0228 10.6503 17.4561 7.56175C17.3814 7.15389 17.2321 6.93969 16.7937 7.02088C16.7111 7.03616 16.6232 7.0259 16.5379 7.02255C16.0842 7.00488 15.8015 6.74627 15.8115 6.35966C15.8211 5.98118 16.0845 5.75265 16.5291 5.74167C16.6998 5.73737 16.8708 5.73904 17.0416 5.74143C17.932 5.75289 18.5393 6.22928 18.6522 7.1195C18.7153 7.61619 18.9065 7.7129 19.3736 7.70908C22.2776 7.68568 25.182 7.69667 28.0864 7.69762C28.9449 7.69786 29.2174 8.03838 29.0564 8.87153C28.6975 10.7269 28.3482 12.5843 27.9931 14.4404C27.8911 14.9727 27.7013 15.1303 27.1485 15.1308C24.9559 15.1332 22.7635 15.1398 20.5709 15.1238C20.2251 15.1212 20.1752 15.2089 20.2466 15.5286C20.4647 16.5079 20.4525 16.5105 21.4392 16.5105C23.3044 16.5105 25.1694 16.5081 27.0343 16.5124C27.4596 16.5136 27.7175 16.7345 27.7407 17.0939C27.7648 17.464 27.5735 17.6823 27.2306 17.778C27.1506 17.8002 27.0608 17.7909 26.9758 17.7926C26.8626 17.7945 26.7494 17.7931 26.6023 17.7931C26.7287 18.1259 26.8961 18.422 26.822 18.7781C26.7514 19.1181 26.5899 19.3872 26.3058 19.579C25.8726 19.8713 25.278 19.8333 24.8773 19.4961C24.4083 19.1019 24.3436 18.5539 24.6899 17.8136C23.8632 17.8136 23.0458 17.8136 22.1973 17.8136C22.312 18.1305 22.497 18.4395 22.4082 18.7996C22.3229 19.1458 22.1462 19.4264 21.836 19.6129C21.4084 19.8701 20.8233 19.8149 20.4448 19.4835C19.9847 19.0814 19.9312 18.5794 20.2662 17.8172ZM20.2722 10.7738C20.4857 10.7738 20.7008 10.7563 20.9122 10.778C21.176 10.805 21.267 10.7203 21.2352 10.4492C21.1872 10.0399 21.1624 9.62707 21.1462 9.21515C21.1388 9.02818 21.0647 8.97063 20.8873 8.97564C20.5604 8.98519 20.2328 8.97827 19.9054 8.97827C19.0319 8.97827 19.0319 8.97827 19.1795 9.83553C19.3409 10.7738 19.3409 10.7738 20.2722 10.7738ZM26.4658 10.7735C26.636 10.7735 26.8091 10.7525 26.9753 10.778C27.3223 10.8311 27.4407 10.6737 27.477 10.3492C27.5193 9.97093 27.5988 9.59507 27.6869 9.22422C27.7328 9.03224 27.6953 8.96919 27.4971 8.97564C27.186 8.98591 26.8741 8.97827 26.5625 8.97827C25.682 8.97827 25.682 8.97827 25.6109 9.83386C25.5328 10.7735 25.5328 10.7735 26.4658 10.7735ZM23.3614 10.7738C24.2722 10.7738 24.2798 10.774 24.3147 9.96568C24.3283 9.64569 24.538 9.21897 24.3219 9.03725C24.1277 8.87391 23.7013 8.98042 23.3772 8.97946C22.375 8.97612 22.375 8.97827 22.4798 9.97953C22.5634 10.7738 22.5634 10.7738 23.3614 10.7738ZM20.4835 12.0542C20.2994 12.0542 20.1143 12.0663 19.9314 12.0511C19.6833 12.0305 19.5603 12.0706 19.6492 12.3691C19.7373 12.6657 19.8135 12.9771 19.8211 13.2837C19.8342 13.8002 20.0912 13.922 20.548 13.8544C20.8388 13.8112 21.2209 13.9767 21.4081 13.7923C21.6008 13.6025 21.4117 13.2326 21.4026 12.9415C21.3745 12.0537 21.3659 12.0539 20.4835 12.0542ZM26.2988 12.0542C25.465 12.0542 25.4655 12.0542 25.4022 12.8711C25.3912 13.0122 25.3714 13.1528 25.3582 13.294C25.3071 13.8496 25.3079 13.8496 25.8492 13.8499C26.7943 13.8499 26.7943 13.8499 26.978 12.9098C27.1449 12.0542 27.1449 12.0542 26.2988 12.0542ZM23.4049 12.0542C22.6513 12.0542 22.6513 12.0542 22.6854 12.8181C22.6897 12.9172 22.6926 13.0165 22.6995 13.1154C22.7487 13.8499 22.7509 13.8193 23.4775 13.8611C23.9262 13.8869 24.1356 13.7799 24.0785 13.3026C24.0606 13.1516 24.1086 12.9933 24.1211 12.8376C24.1824 12.0542 24.1817 12.0542 23.4049 12.0542Z" fill="#030303"/>
<path fill-rule="evenodd" clip-rule="evenodd" d="M37.033 9.23791C37.9512 9.23791 37.951 9.23791 37.9514 8.30161C37.9517 8.07404 37.9397 7.84551 37.9598 7.61961C37.9939 7.22847 38.2776 6.96867 38.626 6.98538C38.9627 7.00138 39.213 7.25474 39.2287 7.63418C39.2454 8.04586 39.2543 8.45993 39.2292 8.87065C39.2101 9.18228 39.3307 9.25964 39.6189 9.24341C40.0015 9.22191 40.3864 9.23242 40.7701 9.24006C41.2009 9.24866 41.4806 9.4982 41.4853 9.8626C41.4903 10.2215 41.2102 10.498 40.7866 10.5166C40.3893 10.5341 39.9898 10.5355 39.5927 10.5171C39.3276 10.5047 39.2087 10.5668 39.2295 10.8624C39.2557 11.2445 39.2421 11.6301 39.2337 12.0136C39.2237 12.4726 38.9687 12.7611 38.5921 12.757C38.2148 12.7529 37.9648 12.4669 37.9536 12.0036C37.9438 11.6058 37.9402 11.2072 37.9553 10.8096C37.9636 10.5935 37.908 10.5064 37.6749 10.5171C37.2778 10.5353 36.8788 10.5295 36.4809 10.52C35.9991 10.5083 35.6968 10.2389 35.7099 9.85137C35.7225 9.47599 36.0093 9.24627 36.4786 9.23863C36.6631 9.23553 36.8484 9.23791 37.033 9.23791Z" fill="#060606"/>
<path fill-rule="evenodd" clip-rule="evenodd" d="M8.32715 22.8428C9.43777 22.8428 10.5486 22.8414 11.6595 22.8433C12.1693 22.8442 12.4523 23.0661 12.4616 23.4632C12.4712 23.8804 12.1796 24.1234 11.6514 24.1239C9.41556 24.1258 7.17975 24.1256 4.94417 24.1239C4.41667 24.1237 4.10983 23.8806 4.11269 23.4766C4.11508 23.0728 4.41524 22.844 4.95205 22.8433C6.07724 22.8418 7.20219 22.8428 8.32715 22.8428Z" fill="#020202"/>
<path fill-rule="evenodd" clip-rule="evenodd" d="M6.59445 21.2295C6.01156 21.2298 5.42891 21.2353 4.84625 21.2279C4.39087 21.2221 4.10361 20.959 4.11244 20.5764C4.12128 20.2127 4.4052 19.9517 4.83121 19.9496C6.03926 19.9432 7.24708 19.9434 8.45513 19.9494C8.90382 19.9515 9.19873 20.2261 9.18918 20.6039C9.17963 20.97 8.90072 21.2214 8.46993 21.2271C7.84477 21.2353 7.21961 21.2293 6.59445 21.2295Z" fill="#040404"/>
</svg>
