<svg width="44" height="40" viewBox="0 0 44 40" fill="none" xmlns="http://www.w3.org/2000/svg">
<path fill-rule="evenodd" clip-rule="evenodd" d="M36.452 9.20886C36.2674 9.20886 36.0821 9.20647 35.8975 9.20934C35.4283 9.21722 35.1415 9.44693 35.1288 9.82208C35.1157 10.2096 35.4182 10.479 35.8999 10.4907C36.2977 10.5002 36.6967 10.506 37.0939 10.4878C37.3269 10.4771 37.3826 10.5642 37.3742 10.7804C37.3592 11.1779 37.3627 11.5765 37.3725 11.9743C37.3837 12.4376 37.6338 12.7237 38.0111 12.7277C38.3874 12.7318 38.6427 12.4433 38.6527 11.9843C38.6611 11.6008 38.6749 11.2152 38.6484 10.8331C38.6276 10.5373 38.7465 10.4752 39.0116 10.4878C39.4087 10.5062 39.8082 10.5048 40.2056 10.4874C40.6289 10.4687 40.909 10.1922 40.9043 9.8333C40.8993 9.46866 40.6199 9.21936 40.1891 9.21077C39.8053 9.20289 39.4202 9.19238 39.0379 9.21411C38.7496 9.23035 38.6291 9.15298 38.6482 8.84136C38.6732 8.43063 38.6644 8.01656 38.6477 7.60489C38.6319 7.22568 38.3817 6.97232 38.045 6.95608C37.6966 6.93937 37.4129 7.19918 37.3787 7.59032C37.3587 7.81622 37.3706 8.04474 37.3704 8.27231C37.3699 9.20886 37.3701 9.20886 36.452 9.20886Z" fill="#FDFDFD"/>
<path fill-rule="evenodd" clip-rule="evenodd" d="M7.74609 22.8138C6.62114 22.8138 5.49619 22.8128 4.37099 22.814C3.83419 22.8148 3.53426 23.0435 3.53164 23.4473C3.52877 23.8516 3.83562 24.0945 4.36311 24.0947C6.59893 24.0964 8.83451 24.0966 11.0703 24.0947C11.5985 24.0942 11.8901 23.8511 11.8806 23.4339C11.8712 23.0368 11.588 22.815 11.0784 22.814C9.96758 22.8124 8.85696 22.8138 7.74609 22.8138Z" fill="#FDFDFD"/>
<path fill-rule="evenodd" clip-rule="evenodd" d="M6.01346 21.2005C6.63862 21.2005 7.26378 21.2065 7.88894 21.1983C8.31972 21.1928 8.59863 20.9412 8.60819 20.5751C8.61774 20.1973 8.32283 19.9227 7.87414 19.9206C6.66608 19.9146 5.45827 19.9143 4.25022 19.9208C3.82397 19.9232 3.54004 20.1839 3.53145 20.5476C3.52261 20.9302 3.81012 21.1933 4.26526 21.199C4.84767 21.2065 5.43057 21.201 6.01346 21.2005Z" fill="#FDFDFD"/>
<path fill-rule="evenodd" clip-rule="evenodd" d="M0.000477323 5.04468C0.0140885 5.04014 0.0367741 5.03919 0.0398784 5.03083C0.536329 3.63986 1.57078 3.20454 2.97799 3.23845C5.21237 3.29266 7.44914 3.25302 9.68496 3.25325C9.81296 3.25325 9.94501 3.23845 10.0685 3.26328C10.4173 3.33325 10.6301 3.54458 10.6189 3.91304C10.6077 4.2772 10.3987 4.4945 10.0367 4.52793C9.78263 4.55133 9.5245 4.53557 9.26827 4.53557C7.03245 4.53581 4.79663 4.53462 2.56081 4.53653C1.68779 4.53724 1.2828 4.942 1.28256 5.81335C1.28184 12.3355 1.2859 18.8577 1.27277 25.38C1.27181 25.7421 1.39646 25.7848 1.70618 25.7846C12.3867 25.7776 23.0674 25.7788 33.7476 25.7793C33.9184 25.7793 34.091 25.7743 34.2596 25.7965C34.5841 25.8392 34.7702 26.0382 34.7945 26.3627C34.8203 26.7058 34.6606 26.9456 34.3224 27.0251C34.146 27.0664 33.9559 27.0607 33.7715 27.0607C23.1054 27.0621 12.439 27.065 1.77256 27.0511C1.35706 27.0509 1.25557 27.1497 1.27109 27.5578C1.30572 28.4681 1.27826 29.3803 1.28303 30.2918C1.28686 31.0435 1.68015 31.4525 2.4259 31.4922C2.53956 31.4982 2.65371 31.4943 2.76761 31.4943C15.5129 31.4946 28.2585 31.4946 41.0041 31.4936C41.1743 31.4936 41.3468 31.4924 41.5151 31.4702C42.0729 31.3967 42.45 31.0043 42.4591 30.4386C42.4755 29.3992 42.4516 28.3592 42.4736 27.3202C42.4803 27.0029 42.2971 27.0631 42.1219 27.0628C40.655 27.0616 39.1881 27.0623 37.7212 27.0616C37.5934 27.0616 37.463 27.07 37.3379 27.0504C36.9819 26.9948 36.7772 26.7782 36.7574 26.4195C36.739 26.0871 37.0079 25.8211 37.3751 25.7881C37.5306 25.774 37.6884 25.7795 37.8449 25.7793C39.269 25.7788 40.6932 25.7719 42.1171 25.7853C42.3934 25.7877 42.4729 25.7186 42.4724 25.4331C42.4638 18.8538 42.4672 12.2746 42.4638 5.69539C42.4633 4.98355 42.0309 4.54035 41.3248 4.53915C37.9497 4.53295 34.5746 4.53629 31.1997 4.53748C31.1625 4.53748 31.125 4.553 31.049 4.56996C31.3874 5.05232 31.715 5.51056 31.9954 6.00033C36.0733 13.1218 31.7284 22.1642 23.6164 23.4322C17.2206 24.432 11.2622 20.108 10.1848 13.6849C9.13049 7.39918 13.514 1.29467 19.8255 0.248284C21.67 -0.0573705 23.4819 0.0572498 25.2684 0.601936C25.3498 0.626771 25.4314 0.651844 25.511 0.682649C25.8861 0.82879 26.0619 1.14471 25.9599 1.48523C25.8589 1.82288 25.5277 2.00317 25.142 1.89524C24.4436 1.69943 23.7451 1.5189 23.0208 1.43556C17.9441 0.850759 13.2067 3.97441 11.7558 8.87157C9.94453 14.984 14.0425 21.3351 20.3571 22.2031C26.1629 23.0012 31.5591 18.866 32.1821 13.0333C32.6024 9.09461 31.1591 5.87663 28.034 3.42686C27.9447 3.35665 27.8478 3.29552 27.7604 3.22269C27.4509 2.9636 27.3864 2.60971 27.5916 2.31934C27.8093 2.01105 28.1766 1.95303 28.5303 2.20448C28.8772 2.45139 29.2185 2.71191 29.5337 2.99751C29.7376 3.18233 29.9389 3.25994 30.2152 3.25922C33.7185 3.25039 37.2223 3.2917 40.7245 3.23535C42.2045 3.2117 43.2557 3.67544 43.7481 5.13064C43.7481 13.7606 43.7481 22.3906 43.7481 31.0203C43.5714 31.1252 43.5804 31.3324 43.4949 31.4877C42.9784 32.4249 42.1649 32.7843 41.1259 32.7821C36.6275 32.7738 32.1289 32.7824 27.6303 32.7712C27.2859 32.7702 27.1734 32.8478 27.1789 33.2103C27.2014 34.5908 27.2035 35.9722 27.1782 37.3526C27.1713 37.7247 27.2869 37.8068 27.6303 37.7839C28.0837 37.7536 28.5408 37.7722 28.9966 37.7777C29.489 37.7834 29.7701 38.0322 29.7588 38.4406C29.7481 38.8351 29.4845 39.0581 29.0012 39.0583C24.1895 39.0602 19.3778 39.0602 14.5661 39.0581C14.0955 39.0579 13.8283 38.815 13.8304 38.4181C13.8326 38.0272 14.1065 37.7851 14.5731 37.7782C15.0428 37.7712 15.5134 37.7584 15.9819 37.7832C16.2988 37.8001 16.4156 37.7299 16.4094 37.3768C16.3853 36.0388 16.3996 34.7006 16.3996 33.3624C16.3996 32.779 16.3996 32.779 15.8186 32.779C11.4341 32.779 7.04941 32.7716 2.66517 32.7838C1.43682 32.7874 0.553522 32.3129 0.105547 31.1347C0.0847718 31.0803 0.0678172 31.0287 0 31.0208C0.000477586 22.3617 0.000477323 13.7031 0.000477323 5.04468ZM21.7877 32.7783C20.536 32.7783 19.284 32.786 18.032 32.7721C17.7612 32.769 17.6728 32.8301 17.6759 33.1176C17.6917 34.5404 17.6931 35.9631 17.6755 37.3856C17.6716 37.6953 17.7351 37.787 18.0642 37.7846C20.5536 37.7686 23.0435 37.7708 25.5329 37.7825C25.8204 37.7839 25.9174 37.7299 25.9133 37.4181C25.8947 35.9956 25.8971 34.5729 25.9119 33.1504C25.915 32.8598 25.8515 32.7657 25.5434 32.7702C24.2919 32.7893 23.0397 32.7783 21.7877 32.7783Z" fill="#040404"/>
<path fill-rule="evenodd" clip-rule="evenodd" d="M19.6852 17.7884C18.8226 17.7112 18.7658 17.6499 18.6061 16.7936C18.0296 13.7065 17.4417 10.6215 16.875 7.53294C16.8003 7.12508 16.6511 6.91088 16.2126 6.99207C16.13 7.00736 16.0421 6.99709 15.9569 6.99375C15.5032 6.97607 15.2205 6.71746 15.2305 6.33086C15.24 5.95237 15.5034 5.72385 15.9481 5.71286C16.1188 5.70856 16.2898 5.71023 16.4605 5.71262C17.351 5.72408 17.9582 6.20047 18.0712 7.09069C18.1342 7.58738 18.3255 7.6841 18.7926 7.68027C21.6965 7.65687 24.601 7.66786 27.5054 7.66881C28.3639 7.66905 28.6363 8.00957 28.4754 8.84272C28.1165 10.6981 27.7671 12.5555 27.412 14.4116C27.3101 14.9439 27.1202 15.1015 26.5674 15.102C24.3748 15.1043 22.1825 15.111 19.9899 15.095C19.6441 15.0924 19.5942 15.18 19.6656 15.4998C19.8836 16.4791 19.8714 16.4817 20.8581 16.4817C22.7233 16.4817 24.5883 16.4793 26.4533 16.4836C26.8786 16.4848 27.1365 16.7057 27.1596 17.0651C27.1837 17.4352 26.9925 17.6535 26.6496 17.7492C26.5696 17.7714 26.4798 17.7621 26.3948 17.7638C26.2816 17.7657 26.1684 17.7643 26.0213 17.7643C26.1476 18.0971 26.315 18.3932 26.241 18.7493C26.1703 19.0893 26.0089 19.3584 25.7247 19.5502C25.2915 19.8425 24.6969 19.8045 24.2963 19.4673C23.8273 19.0731 23.7626 18.5251 24.1088 17.7848C23.2821 17.7848 22.4647 17.7848 21.6163 17.7848C21.7309 18.1017 21.916 18.4107 21.8271 18.7708C21.7419 19.117 21.5652 19.3976 21.255 19.5841C20.8273 19.8413 20.2423 19.7861 19.8638 19.4547C19.4036 19.0525 19.3501 18.5506 19.6852 17.7884ZM19.6911 10.7449C19.9046 10.7449 20.1198 10.7275 20.3311 10.7492C20.595 10.7762 20.6859 10.6915 20.6542 10.4204C20.6062 10.0111 20.5814 9.59826 20.5651 9.18634C20.5577 8.99937 20.4837 8.94182 20.3063 8.94683C19.9794 8.95638 19.6517 8.94946 19.3243 8.94946C18.4508 8.94946 18.4508 8.94946 18.5984 9.80673C18.7598 10.7449 18.7598 10.7449 19.6911 10.7449ZM25.8847 10.7447C26.055 10.7447 26.2281 10.7237 26.3943 10.7492C26.7413 10.8023 26.8597 10.6449 26.896 10.3204C26.9383 9.94212 27.0178 9.56626 27.1059 9.19542C27.1517 9.00343 27.1142 8.94039 26.916 8.94683C26.6049 8.9571 26.293 8.94946 25.9814 8.94946C25.101 8.94946 25.101 8.94946 25.0298 9.80505C24.9517 10.7447 24.9517 10.7447 25.8847 10.7447ZM22.7804 10.7449C23.6912 10.7449 23.6988 10.7452 23.7337 9.93687C23.7473 9.61688 23.9569 9.19016 23.7408 9.00844C23.5467 8.84511 23.1202 8.95161 22.7962 8.95065C21.7939 8.94731 21.7939 8.94946 21.8988 9.95072C21.9823 10.7449 21.9823 10.7449 22.7804 10.7449ZM19.9025 12.0254C19.7184 12.0254 19.5333 12.0375 19.3504 12.0222C19.1023 12.0017 18.9793 12.0418 19.0681 12.3403C19.1562 12.6369 19.2324 12.9483 19.2401 13.2549C19.2532 13.7714 19.5101 13.8932 19.9669 13.8256C20.2578 13.7824 20.6399 13.9479 20.8271 13.7635C21.0198 13.5737 20.8307 13.2038 20.8216 12.9127C20.7934 12.0249 20.7848 12.0251 19.9025 12.0254ZM25.7178 12.0254C24.8839 12.0254 24.8844 12.0253 24.8211 12.8423C24.8101 12.9834 24.7903 13.124 24.7772 13.2652C24.7261 13.8208 24.7268 13.8208 25.2681 13.8211C26.2133 13.8211 26.2133 13.8211 26.3969 12.8809C26.5638 12.0254 26.5638 12.0254 25.7178 12.0254ZM22.8239 12.0254C22.0702 12.0254 22.0702 12.0253 22.1044 12.7892C22.1087 12.8883 22.1115 12.9877 22.1185 13.0865C22.1677 13.8211 22.1698 13.7905 22.8965 13.8323C23.3451 13.8581 23.5546 13.7511 23.4975 13.2738C23.4796 13.1228 23.5276 12.9645 23.54 12.8088C23.6014 12.0253 23.6007 12.0254 22.8239 12.0254Z" fill="#030303"/>
<path fill-rule="evenodd" clip-rule="evenodd" d="M36.452 9.20911C37.3701 9.20911 37.3699 9.2091 37.3704 8.2728C37.3706 8.04523 37.3587 7.8167 37.3787 7.59081C37.4129 7.19966 37.6966 6.93986 38.045 6.95657C38.3817 6.97257 38.6319 7.22593 38.6477 7.60537C38.6644 8.01705 38.6732 8.43112 38.6482 8.84184C38.6291 9.15347 38.7496 9.23083 39.0379 9.2146C39.4204 9.19311 39.8053 9.20361 40.1891 9.21125C40.6199 9.21985 40.8995 9.46939 40.9043 9.83379C40.9093 10.1927 40.6292 10.4692 40.2056 10.4878C39.8082 10.5053 39.4087 10.5067 39.0116 10.4883C38.7465 10.4759 38.6276 10.538 38.6484 10.8336C38.6747 11.2157 38.6611 11.6013 38.6527 11.9848C38.6427 12.4438 38.3876 12.7323 38.0111 12.7282C37.6338 12.7241 37.3837 12.4381 37.3725 11.9748C37.3627 11.577 37.3592 11.1784 37.3742 10.7808C37.3826 10.5647 37.3269 10.4776 37.0939 10.4883C36.6967 10.5065 36.2977 10.5007 35.8999 10.4912C35.418 10.4795 35.1157 10.2101 35.1288 9.82256C35.1415 9.44718 35.4283 9.21746 35.8975 9.20982C36.0821 9.20672 36.2674 9.20911 36.452 9.20911Z" fill="#060606"/>
<path fill-rule="evenodd" clip-rule="evenodd" d="M7.74609 22.814C8.85672 22.814 9.96758 22.8126 11.0784 22.8145C11.5883 22.8154 11.8712 23.0373 11.8806 23.4344C11.8901 23.8515 11.5985 24.0946 11.0703 24.0951C8.83451 24.097 6.59869 24.0968 4.36311 24.0951C3.83562 24.0949 3.52877 23.8518 3.53164 23.4478C3.53402 23.044 3.83419 22.8152 4.37099 22.8145C5.49619 22.813 6.62114 22.814 7.74609 22.814Z" fill="#020202"/>
<path fill-rule="evenodd" clip-rule="evenodd" d="M6.01346 21.2007C5.43057 21.201 4.84791 21.2065 4.26526 21.199C3.80988 21.1933 3.52261 20.9302 3.53145 20.5476C3.54028 20.1839 3.82421 19.9229 4.25022 19.9208C5.45827 19.9143 6.66608 19.9146 7.87413 19.9206C8.32283 19.9227 8.61774 20.1973 8.60819 20.5751C8.59863 20.9412 8.31972 21.1926 7.88894 21.1983C7.26378 21.2065 6.63862 21.2005 6.01346 21.2007Z" fill="#040404"/>
</svg>
