<svg width="44" height="44" viewBox="0 0 44 44" fill="none" xmlns="http://www.w3.org/2000/svg">
<path fill-rule="evenodd" clip-rule="evenodd" d="M40.5629 15.856C40.9027 16.0502 41.2432 16.2434 41.5828 16.4382C41.8729 16.6044 42.1984 16.9473 42.4412 16.8955C42.7335 16.8334 42.8123 16.3429 43.0253 16.0681C43.2028 15.8386 43.1404 15.7347 42.9062 15.5974C41.732 14.9099 40.5651 14.2091 39.4048 13.498C39.1779 13.3587 39.0759 13.3642 38.9336 13.6107C38.3725 14.5828 37.7843 15.5392 37.2081 16.5027C37.0359 16.7907 36.7057 17.1099 36.7468 17.3666C36.7952 17.6678 37.2929 17.7337 37.562 17.9498C37.7793 18.1241 37.8985 18.0942 38.0384 17.8414C38.3565 17.2671 38.7108 16.7128 39.0714 16.1154C39.1244 16.2653 39.1653 16.3668 39.1963 16.4712C40.9061 22.2411 40.0347 27.5968 36.6262 32.551C36.4354 32.8285 36.0017 33.0759 36.1154 33.3944C36.2166 33.6776 36.6297 33.8441 36.8915 34.0774C37.0457 34.2147 37.1298 34.1934 37.2542 34.0332C39.6968 30.8859 41.0787 27.3286 41.3865 23.3577C41.5835 20.8189 41.2525 18.3407 40.496 15.9148C40.5187 15.8954 40.5407 15.8759 40.5629 15.856Z" fill="#FDFDFD"/>
<path fill-rule="evenodd" clip-rule="evenodd" d="M2.90623 17.4499C2.66314 17.0471 2.42864 16.6533 2.1889 16.2624C2.00598 15.9644 1.87321 15.5061 1.61579 15.4178C1.31801 15.3151 1.0126 15.7358 0.684496 15.8806C0.472448 15.9739 0.443078 16.0804 0.572504 16.2915C1.29843 17.4755 2.01696 18.6644 2.71639 19.8641C2.85894 20.1084 2.95733 20.0833 3.16102 19.9582C4.11762 19.3708 5.08354 18.7991 6.04587 18.2219C6.99913 17.6498 6.99269 17.6541 6.38687 16.7041C6.26676 16.5157 6.18605 16.5021 6.00433 16.6165C5.49618 16.936 4.97489 17.2345 4.45289 17.5452C4.39176 17.3935 4.43999 17.2887 4.46793 17.1815C6.90983 7.79121 16.9124 1.92311 26.306 4.36883C26.6277 4.4524 27.0176 4.67066 27.2571 4.56296C27.515 4.44715 27.4778 3.96527 27.6096 3.6577C27.7147 3.41222 27.686 3.29068 27.3784 3.20376C23.904 2.22208 20.4014 2.11271 16.9358 3.10514C9.58192 5.20986 5.01429 10.0953 2.90623 17.4499Z" fill="#FDFDFD"/>
<path fill-rule="evenodd" clip-rule="evenodd" d="M0.378906 28.7849C0.543196 28.6858 0.480873 28.5071 0.507856 28.3696C0.694592 27.4209 1.10197 26.5861 1.78015 25.8976C2.83466 24.8276 3.90421 23.7719 4.97806 22.699C6.6403 24.3634 8.28629 26.018 9.94375 27.6609C10.1377 27.8531 10.0598 27.9426 9.91152 28.0888C9.11085 28.8792 8.31662 29.6758 7.52287 30.4727C7.06558 30.9319 7.06272 31.2793 7.51547 31.7337C8.2297 32.4511 8.94799 33.1646 9.66604 33.8786C9.68204 33.8943 9.71427 33.8946 9.7637 33.9098C9.81146 33.7826 9.86734 33.657 9.90603 33.5266C10.5508 31.3662 12.0024 30.1503 14.2182 29.7954C15.5067 29.5891 16.789 29.3432 18.0718 29.1029C18.2 29.0786 18.3965 29.1325 18.4422 28.9169C18.4897 28.6891 18.3349 28.6072 18.1754 28.5026C16.6163 27.4787 15.6012 26.0617 15.1583 24.248C15.1105 24.0522 15.026 23.9727 14.8514 23.9109C13.5464 23.4481 12.8726 22.4898 12.8704 21.1007C12.8678 19.5536 12.8659 18.0069 12.8706 16.46C12.8852 11.7699 16.2254 7.98218 20.8824 7.37087C25.5365 6.7598 30.1024 10.1619 30.8482 14.7916C30.9468 15.4039 30.9988 16.0183 30.9984 16.6379C30.9969 19.2532 30.9988 21.8687 30.9974 24.4842C30.9967 25.9802 30.1397 26.8717 28.6434 26.8174C27.8776 26.7893 27.2758 26.9099 26.8114 27.5825C26.5523 27.9577 26.1339 28.2091 25.7454 28.4661C25.5919 28.5673 25.3705 28.6275 25.423 28.8938C25.4753 29.1567 25.7069 29.0779 25.8583 29.107C27.2648 29.3742 28.6787 29.6027 30.0816 29.8871C31.9031 30.2563 33.1671 31.3235 33.7963 33.0762C34.3312 34.5665 34.798 36.0817 35.3184 37.5777C35.4373 37.9201 35.3812 37.9877 35.0235 37.987C30.3691 37.9762 25.7148 37.9798 21.0603 37.9798C20.906 37.9798 20.7522 37.9798 20.4855 37.9798C20.9117 38.3287 21.2726 38.6231 21.6635 38.9429C20.2472 40.2254 18.9718 41.412 17.6587 42.5556C17.0581 43.0788 16.3217 43.3699 15.5215 43.4682C15.4627 43.4754 15.4131 43.4833 15.3997 43.5516C14.8935 43.5516 14.387 43.5516 13.8807 43.5516C13.8354 43.4085 13.6928 43.4408 13.5987 43.4183C12.6557 43.1953 11.8668 42.7129 11.1869 42.0331C8.09694 38.941 5.00599 35.8493 1.91339 32.7596C1.14447 31.9911 0.667129 31.0761 0.481826 30.0053C0.464872 29.906 0.522185 29.7711 0.379387 29.7128C0.37891 29.4036 0.378906 29.0943 0.378906 28.7849ZM29.5959 18.7981C29.5467 17.6108 29.6766 16.4426 29.5076 15.2816C29.0228 11.9543 26.4451 9.33423 23.1402 8.801C19.847 8.27017 16.5796 9.97873 15.0561 12.973C14.1095 14.8334 14.275 16.8142 14.281 18.7921C14.7375 18.6971 15.0979 18.5531 14.9723 17.9824C14.9178 17.7357 15.1172 17.7655 15.2703 17.7667C16.0595 17.772 16.8403 17.718 17.6097 17.5208C19.2154 17.1086 20.5154 16.2112 21.6136 15.0022C21.8521 14.7395 21.9878 14.7025 22.2452 14.9891C22.9912 15.8201 23.8427 16.5245 24.8619 17.0109C26.0269 17.5668 27.255 17.7925 28.5381 17.7693C28.6997 17.7665 28.961 17.6896 28.8956 18.0036C28.7807 18.5519 29.1186 18.6994 29.5959 18.7981ZM26.2593 36.5752C28.5503 36.5752 30.8415 36.5724 33.1325 36.5795C33.4023 36.5803 33.5126 36.5616 33.3961 36.239C33.0778 35.3562 32.8182 34.4521 32.4987 33.5698C32.0242 32.2591 31.0807 31.4825 29.7082 31.2318C28.2312 30.9617 26.7536 30.6974 25.2786 30.4187C25.0474 30.375 24.8912 30.4141 24.7219 30.5877C23.8971 31.4328 23.0439 32.25 22.2299 33.1046C21.9741 33.3735 21.8504 33.33 21.6183 33.0896C20.7988 32.2402 19.9508 31.418 19.1232 30.5763C18.9682 30.4182 18.8223 30.3714 18.6041 30.4122C17.2391 30.6694 15.8756 30.9376 14.504 31.1539C13.0323 31.386 11.9293 32.0718 11.3818 33.506C11.2172 33.9373 11.0943 34.3843 10.9347 34.818C10.8602 35.0205 10.9137 35.1473 11.0642 35.2896C11.4618 35.6664 11.8419 36.0618 12.2307 36.4482C12.6975 36.9122 13.0032 36.9198 13.4951 36.4766C14.3614 35.6955 15.2373 34.9245 16.0841 34.1228C16.3343 33.8862 16.459 33.927 16.6741 34.1498C17.3762 34.8779 18.1071 35.5785 18.8118 36.3049C19.0028 36.5012 19.1944 36.5829 19.4699 36.5815C21.7332 36.5709 23.996 36.5752 26.2593 36.5752ZM25.5665 26.8342C24.6393 26.8342 23.7992 26.8342 22.9589 26.8342C21.9085 26.8342 21.9211 26.8342 21.9171 25.7835C21.9156 25.475 22.0202 25.4155 22.3025 25.4184C23.6806 25.432 25.0591 25.4179 26.4369 25.4305C26.6836 25.4329 26.8102 25.3522 26.9157 25.134C27.2887 24.3627 27.4941 23.5543 27.4984 22.698C27.5034 21.6153 27.4957 20.5324 27.5067 19.4495C27.5091 19.2265 27.4561 19.1219 27.2152 19.0975C25.2666 18.9005 23.57 18.1273 22.1169 16.8206C21.9634 16.6826 21.8789 16.7019 21.7385 16.8278C20.2828 18.1328 18.5854 18.9024 16.6369 19.0985C16.3983 19.1226 16.3391 19.2241 16.3448 19.449C16.3594 19.997 16.3434 20.546 16.3508 21.0943C16.3637 22.0203 16.2942 22.949 16.4912 23.8679C17.3585 27.9061 22.4372 29.6185 25.5665 26.8342ZM14.8431 42.1511C15.7865 42.1783 16.6694 41.6876 17.4323 40.9184C17.5527 40.7971 17.5467 40.7276 17.4321 40.6139C16.464 39.6535 15.4988 38.69 14.5379 37.7224C14.4147 37.5982 14.3445 37.6021 14.199 37.7107C13.2305 38.4331 12.17 38.3533 11.3135 37.5003C9.69947 35.8932 8.08857 34.2828 6.4815 32.6688C5.6216 31.8054 5.54543 30.7807 6.26754 29.7835C6.36998 29.6421 6.3898 29.5698 6.25871 29.4404C5.29924 28.4911 4.3455 27.536 3.39391 26.5794C3.28024 26.465 3.21696 26.427 3.06557 26.561C1.5201 27.9259 1.36655 30.2095 2.80361 31.6645C5.95567 34.8555 9.13759 38.0168 12.3157 41.1816C12.959 41.8218 13.7582 42.1363 14.8431 42.1511ZM18.6389 39.8102C18.8653 39.6005 19.0678 39.3837 19.3006 39.2067C19.5217 39.0382 19.4883 38.9321 19.3056 38.754C18.5312 37.9987 17.7702 37.2291 17.0065 36.4625C16.2952 35.7485 16.3023 35.7536 15.5934 36.4542C15.4369 36.6089 15.468 36.6851 15.6015 36.8174C16.5495 37.7573 17.4908 38.7034 18.4357 39.6466C18.4935 39.7041 18.5632 39.7495 18.6389 39.8102ZM8.14899 27.8736C8.0721 27.7867 8.0038 27.7012 7.92691 27.6243C7.10475 26.8003 6.28091 25.9776 5.4578 25.1543C4.96517 24.6616 4.98068 24.6781 4.4699 25.1488C4.2261 25.3732 4.26 25.4879 4.47826 25.6999C5.35368 26.5498 6.20713 27.4221 7.0749 28.2798C7.18594 28.3894 7.30916 28.6382 7.4381 28.5544C7.70173 28.3823 7.90423 28.1172 8.14899 27.8736ZM19.9372 29.431C20.3045 29.7947 20.6668 30.1637 21.0402 30.5206C21.3423 30.8089 21.6052 31.3354 21.9455 31.3266C22.2428 31.3189 22.5286 30.8153 22.8176 30.5285C23.1855 30.1632 23.5509 29.7954 23.9174 29.4289C22.5656 29.7068 21.2637 29.704 19.9372 29.431ZM29.5568 23.6594C29.281 23.8968 28.8736 23.8046 28.7458 24.1208C28.5806 24.5293 28.492 24.9692 28.3697 25.3981C29.5052 25.5046 29.7041 25.2235 29.5568 23.6594ZM14.968 20.0668C14.4581 20.3834 14.2547 20.7951 14.2769 21.3204C14.2969 21.7899 14.4983 22.1538 14.9266 22.4007C14.9505 22.3351 14.9668 22.3112 14.9668 22.2868C14.9682 21.5724 14.968 20.8581 14.968 20.0668ZM28.9182 22.405C29.8541 21.9055 29.7464 20.4615 28.9182 20.1155C28.9182 20.8686 28.9182 21.6144 28.9182 22.405Z" fill="#040404"/>
<path fill-rule="evenodd" clip-rule="evenodd" d="M43.5099 8.28705C43.3179 9.35923 42.5776 10.03 41.5016 10.105C41.4457 10.1088 41.3879 10.116 41.3333 10.1081C40.0514 9.92087 38.9874 10.3653 37.9383 11.0907C36.4172 12.1426 34.8109 13.0715 33.2391 14.0501C33.1245 14.1217 33.0233 14.227 32.8408 14.2373C33.0304 13.1209 33.2119 12.0146 33.4073 10.9109C33.5496 10.1078 33.5579 10.1114 32.7405 10.1083C32.3191 10.1067 31.8943 10.1284 31.4776 10.0823C30.3937 9.96195 29.6131 9.14241 29.5978 8.05375C29.5713 6.17087 29.5706 4.28703 29.5987 2.40415C29.6124 1.51345 30.0744 0.871339 30.8987 0.501926C30.9938 0.459183 31.1277 0.474938 31.1781 0.3479C34.7223 0.3479 38.2664 0.3479 41.8101 0.3479C41.8364 0.374645 41.8586 0.418825 41.8892 0.425511C42.7949 0.622993 43.379 1.26033 43.5087 2.19783C43.5091 4.22757 43.5096 6.25731 43.5099 8.28705ZM34.729 11.4721C35.6557 10.8935 36.5431 10.4259 37.3306 9.82703C38.5157 8.9263 39.7878 8.51319 41.2757 8.69133C41.8873 8.76416 42.1404 8.45875 42.1413 7.83549C42.1442 6.10616 42.1435 4.37682 42.1416 2.64724C42.1411 1.9877 41.9111 1.74842 41.2626 1.7477C38.127 1.74484 34.9914 1.7446 31.8563 1.74794C31.2235 1.74842 30.9988 1.97982 30.9981 2.61596C30.9954 4.35939 30.9952 6.10281 30.9981 7.84624C30.999 8.47617 31.2307 8.70232 31.8654 8.70351C32.8638 8.70542 33.8619 8.71568 34.8601 8.69682C35.1555 8.69133 35.1996 8.77992 35.149 9.04665C35.0026 9.81652 34.8796 10.5907 34.729 11.4721Z" fill="#050505"/>
<path fill-rule="evenodd" clip-rule="evenodd" d="M43.5093 2.19775C43.5339 2.19919 43.5582 2.20134 43.5828 2.2042C43.5828 4.22917 43.5828 6.25437 43.5828 8.27957C43.5589 8.28578 43.5351 8.28816 43.5102 8.28673C43.51 6.25723 43.5095 4.22749 43.5093 2.19775Z" fill="#979797"/>
<path fill-rule="evenodd" clip-rule="evenodd" d="M2.90623 17.4499C5.01429 10.0953 9.58192 5.20983 16.9358 3.10416C20.4016 2.11173 23.9042 2.22111 27.3784 3.20278C27.686 3.28971 27.7147 3.41125 27.6096 3.65673C27.4778 3.9643 27.515 4.44618 27.2571 4.56199C27.0176 4.66969 26.6274 4.45143 26.306 4.36785C16.9124 1.92214 6.90959 7.79024 4.46793 17.1805C4.43999 17.2877 4.39176 17.3928 4.45289 17.5442C4.97513 17.2335 5.49618 16.935 6.00433 16.6155C6.18605 16.5012 6.26676 16.5148 6.38687 16.7032C6.99269 17.6533 6.99913 17.649 6.04587 18.2209C5.08354 18.7983 4.11762 19.37 3.16102 19.9572C2.95709 20.0823 2.85871 20.1076 2.71639 19.8631C2.01696 18.6634 1.29843 17.4745 0.572504 16.2905C0.443078 16.0794 0.472448 15.9729 0.684496 15.8796C1.0126 15.7351 1.31801 15.3144 1.61579 15.4168C1.87321 15.5052 2.00622 15.9634 2.1889 16.2614C2.42864 16.6533 2.66314 17.047 2.90623 17.4499Z" fill="#040404"/>
<path fill-rule="evenodd" clip-rule="evenodd" d="M40.4965 15.9154C41.253 18.3413 41.584 20.8195 41.387 23.3584C41.0792 27.3293 39.6973 30.8866 37.2547 34.0339C37.1303 34.1941 37.0462 34.2153 36.892 34.078C36.6302 33.8445 36.2171 33.678 36.1159 33.3951C36.002 33.0765 36.4359 32.8291 36.6267 32.5517C40.0349 27.5974 40.9065 22.2418 39.1968 16.4718C39.1655 16.3672 39.1247 16.266 39.0719 16.116C38.7113 16.7135 38.3569 17.2675 38.0389 17.842C37.8989 18.0951 37.7798 18.125 37.5625 17.9504C37.2934 17.7343 36.7957 17.6682 36.7472 17.3673C36.7059 17.1106 37.0364 16.7913 37.2086 16.5033C37.7846 15.5398 38.3729 14.5834 38.9341 13.6113C39.0764 13.3651 39.1782 13.3594 39.4052 13.4986C40.5655 14.2097 41.7325 14.9106 42.9067 15.5981C43.1409 15.7351 43.2032 15.8393 43.0258 16.0687C42.8126 16.3434 42.7338 16.8341 42.4417 16.8962C42.1989 16.948 41.8734 16.6051 41.5833 16.4389C41.2437 16.2443 40.9032 16.0508 40.5634 15.8567C40.5493 15.8202 40.5254 15.7834 40.4877 15.8173C40.4727 15.8297 40.4922 15.8813 40.4965 15.9154Z" fill="#040404"/>
<path fill-rule="evenodd" clip-rule="evenodd" d="M40.4966 15.9157C40.4922 15.8814 40.4726 15.8299 40.4872 15.8167C40.5251 15.7826 40.5493 15.8196 40.5632 15.8563C40.5409 15.8762 40.5189 15.8958 40.4966 15.9157Z" fill="#FDFDFD"/>
<path fill-rule="evenodd" clip-rule="evenodd" d="M36.575 3.13278C37.854 3.13278 39.1334 3.13923 40.4126 3.12729C40.6588 3.1249 40.7479 3.16741 40.7496 3.44274C40.7563 4.53474 40.768 4.53474 39.6669 4.53474C37.3754 4.53474 35.0842 4.529 32.7925 4.54142C32.474 4.54309 32.3577 4.48005 32.3651 4.1307C32.3866 3.13302 32.3691 3.13254 33.3694 3.13254C34.4378 3.13278 35.5062 3.13278 36.575 3.13278Z" fill="#080808"/>
<path fill-rule="evenodd" clip-rule="evenodd" d="M35.1446 5.91886C35.974 5.9191 36.803 5.93008 37.6321 5.91241C37.8915 5.90692 37.959 5.9745 37.9607 6.23598C37.9676 7.32368 37.9777 7.32368 36.8766 7.32368C35.499 7.32368 34.1219 7.31532 32.7445 7.33013C32.451 7.33347 32.3656 7.25419 32.3675 6.95642C32.3739 5.9191 32.3622 5.91886 33.416 5.91886C33.9922 5.91886 34.5684 5.91886 35.1446 5.91886Z" fill="#080808"/>
<path fill-rule="evenodd" clip-rule="evenodd" d="M39.3552 6.60046C39.3552 5.91895 39.3552 5.91895 40.0215 5.91895C40.7412 5.91895 40.7412 5.91895 40.7412 6.63341C40.7412 7.32376 40.7412 7.32376 40.0308 7.32376C39.3552 7.32376 39.3552 7.32376 39.3552 6.60046Z" fill="#080808"/>
</svg>
